<svg width="208" height="76" viewBox="0 0 208 76" fill="none" xmlns="http://www.w3.org/2000/svg">
<g clip-path="url(#clip0_1_19)">
<path d="M128.444 27.8961H125.01V53.2599H128.444V37.7067H135.098V34.5217H128.444V27.8961Z" fill="white"/>
<path d="M138.993 39.1227V53.159H142.566V40.0088C142.566 38.6685 143.158 37.8108 144.322 37.4576C144.839 37.3378 147.435 37.2589 150.948 37.2526H151.358V33.9919H146.198C141.418 33.9919 138.993 35.7168 138.993 39.1227Z" fill="white"/>
<path d="M170.399 34.1937H156.11V37.4544H170.629C172.045 37.4544 173.073 37.732 173.524 38.2302C173.921 38.6969 174.129 39.4443 174.164 40.5134H162.584C160.553 40.5134 158.932 40.9296 157.766 41.7527C156.583 42.5852 156.009 43.7426 156.009 45.2941V48.6558C156.009 50.1316 156.674 51.2984 157.983 52.1183C159.191 52.872 160.821 53.2568 162.836 53.2568H171.332C173.262 53.2568 174.807 52.8153 175.92 51.9417C177.053 51.0588 177.601 49.9329 177.601 48.5012V39.0186C177.604 35.8178 175.182 34.1937 170.399 34.1937ZM174.113 44.2061V47.8737C174.113 49.2486 173.066 49.9456 171.004 49.9456H162.654C161.764 49.9456 160.998 49.7627 160.377 49.4032C159.755 49.0437 159.443 48.5107 159.443 47.8232V45.95C159.443 44.3733 160.506 43.5723 162.603 43.5723H173.079C173.763 43.5754 174.113 43.7867 174.113 44.2061Z" fill="white"/>
<path d="M112.922 34.1937H105.083C100.586 34.1937 98.3058 36.1489 98.3058 40.0088V53.2095H101.721V40.1286C101.721 38.1987 102.998 37.2211 105.515 37.2211H112.522C115.004 37.2211 116.265 38.1987 116.265 40.1286V53.2095H119.652V40.0088C119.649 36.1489 117.385 34.1937 112.922 34.1937Z" fill="white"/>
<path d="M46.5438 29.1102C45.1121 30.0121 44.4184 31.4785 44.4184 33.5882V47.571C44.4184 49.3748 45.0711 50.7434 46.4177 51.7557C47.7422 52.7522 49.6469 53.2599 52.0814 53.2599H66.8999V49.9992H52.3495C50.6813 49.9992 49.5397 49.7658 48.8617 49.2896C48.19 48.8197 47.8494 47.9778 47.8494 46.7857V33.913C47.8494 32.9764 48.2215 32.2669 48.9689 31.7497C49.6091 31.3524 50.634 31.1568 52.0972 31.1568H66.9503V27.9466H52.4851C49.751 27.9466 47.7516 28.3376 46.5438 29.1102Z" fill="white"/>
<path d="M187.043 34.1937H182.537L191.322 43.9066L182.511 53.2599H187.037L193.542 46.3568L199.786 53.2599H204.293L187.043 34.1937Z" fill="white"/>
<path d="M91.6172 35.2375C90.6175 34.5784 89.0313 34.2441 86.9027 34.2441H79.1891C77.0574 34.2441 75.4333 34.5753 74.3579 35.2312C72.8632 36.152 72.1347 37.4071 72.1347 39.0754V48.558C72.1347 50.0212 72.7086 51.1471 73.8912 51.9954C75.058 52.8342 76.8398 53.2599 79.1891 53.2599H86.9027C88.9682 53.2599 90.5324 52.9288 91.5447 52.2792C93.0174 51.4056 93.7301 50.1884 93.7301 48.5549V39.0722C93.7301 37.3788 93.0142 36.0858 91.6172 35.2375ZM89.2394 49.482C88.7349 49.8257 87.978 49.9992 86.9878 49.9992H79.0283C78.0034 49.9992 77.2056 49.8194 76.6316 49.4536C75.9347 49.0657 75.5657 48.4319 75.5657 47.6214V39.9583C75.5657 39.0848 75.9316 38.4383 76.6789 38.0221C77.2497 37.6468 78.1516 37.4576 79.3594 37.4576H86.6882C87.8613 37.4576 88.7065 37.6468 89.2962 38.0568C89.9648 38.4478 90.3053 39.088 90.3053 39.9615V47.675C90.299 48.4729 89.9584 49.0594 89.2394 49.482Z" fill="white"/>
<path d="M197.014 42.6672L206.898 32.1786L200.143 34.5469L194.797 40.2169L197.014 42.6672Z" fill="white"/>
<path d="M4.97405 61.7618C4.82898 61.6388 4.65554 61.5474 4.45371 61.5127C4.41903 61.5064 4.38749 61.5095 4.3528 61.5064C4.15098 61.4906 3.9523 61.5253 3.77886 61.6105C3.46981 61.7618 3.2333 62.0488 3.17023 62.4115C3.16077 62.4619 3.16077 62.5092 3.16077 62.5565C3.15131 62.7552 3.19861 62.9476 3.28691 63.1178C3.44143 63.408 3.71894 63.6287 4.06898 63.6918C4.33703 63.7391 4.59562 63.6823 4.81637 63.553C4.91098 63.4963 4.99927 63.43 5.07496 63.3481C5.21371 63.1967 5.31463 63.0106 5.35247 62.793C5.39347 62.5691 5.36193 62.3484 5.27363 62.1529C5.20425 62.0015 5.10019 61.869 4.97405 61.7618Z" fill="white"/>
<path d="M8.01089 41.5162C8.61006 41.6234 9.18716 41.2197 9.29123 40.6206C9.36691 40.1854 9.17454 39.766 8.83396 39.5263C8.70467 39.4348 8.55961 39.3686 8.39562 39.3402C7.94467 39.2614 7.50633 39.4695 7.27297 39.8322C7.19728 39.952 7.14052 40.0876 7.11529 40.2358C7.00807 40.8382 7.40857 41.4121 8.01089 41.5162Z" fill="white"/>
<path d="M19.6537 18.6689C19.4014 18.8297 19.2154 19.0883 19.1586 19.4037C19.0514 20.0028 19.455 20.5799 20.0542 20.684C20.6534 20.7912 21.2273 20.3876 21.3345 19.7852C21.3819 19.5172 21.3219 19.2554 21.1926 19.0347C21.035 18.7666 20.7669 18.5617 20.4358 18.5049C20.1551 18.4608 19.8776 18.527 19.6537 18.6689Z" fill="white"/>
<path d="M21.5332 17.7007C22.2585 18.1927 22.6685 19.0788 22.5077 19.9965C22.2869 21.2453 21.0949 22.081 19.8461 21.8602C18.5973 21.6395 17.7616 20.4475 17.9823 19.1987C18.1621 18.1769 19.0009 17.4422 19.9817 17.3255C20.2308 16.433 20.5178 15.5942 20.8237 14.7869C17.872 16.8115 12.5267 21.1759 9.66649 27.7637C8.11181 31.3461 8.31678 35.6695 8.62898 38.1734C9.85886 38.41 10.6788 39.5894 10.4612 40.8256C10.2404 42.0744 9.0484 42.91 7.79961 42.6893C6.55081 42.4685 5.71512 41.2765 5.93587 40.0277C6.05886 39.3339 6.48774 38.7758 7.05537 38.4478C6.88824 37.1485 6.75263 35.3731 6.85355 33.4337C5.5133 35.083 3.47927 38.1798 2.00658 43.0835C0.0482364 49.6081 1.47363 56.7225 3.61803 60.3995C3.81039 60.3427 4.00907 60.3049 4.2172 60.3017C8.6006 47.4543 16.7998 28.5394 30.9465 11.5703C30.6942 11.1225 30.5807 10.5927 30.6753 10.0503C30.896 8.80149 32.0881 7.96581 33.3369 8.18656C34.5857 8.4073 35.4213 9.59934 35.2006 10.8481C34.9799 12.0969 33.7878 12.9326 32.539 12.7119C32.4066 12.6898 32.2773 12.6488 32.1543 12.6046C18.1526 29.4035 10.0386 48.1323 5.70882 60.8315L5.71197 60.8347C5.74035 60.8568 5.75927 60.8851 5.7845 60.9104C6.0084 61.1122 6.20077 61.3487 6.33006 61.6231C11.5775 60.9104 15.3744 58.1605 18.7581 52.7238C20.0448 50.6551 21.0886 47.9967 21.7413 46.1266C20.5588 46.8866 19.146 47.6183 17.4967 48.2237C17.4935 48.3215 17.4935 48.4161 17.4746 48.5139C17.2539 49.7627 16.0618 50.5983 14.813 50.3776C13.5643 50.1568 12.7286 48.9648 12.9493 47.716C13.1701 46.4672 14.3621 45.6315 15.6109 45.8523C16.1911 45.9563 16.6768 46.2749 17.0142 46.7069C22.309 44.7328 24.9579 41.2544 25.2828 40.8035C26.2667 38.6149 27.2916 35.5276 28.3764 32.2637C29.4265 29.1039 30.5807 25.635 31.8894 22.3837L29.0071 25.0138C29.1648 25.4017 29.2247 25.8337 29.1458 26.2752C28.9251 27.524 27.7331 28.3597 26.4843 28.1389C25.2355 27.9182 24.3998 26.7261 24.6205 25.4773C24.8413 24.2285 26.0333 23.3929 27.2821 23.6136C27.5155 23.6546 27.7299 23.7398 27.9317 23.8438L33.5009 18.7603C34.3807 17.9593 35.0682 16.9376 35.4939 15.8149C38.5055 7.84598 42.583 2.50075 44.6076 0.151371C39.6849 0.312201 25.8725 2.17909 21.5332 17.7007Z" fill="white"/>
<path d="M33.0531 11.5451C33.5324 11.4946 33.9423 11.1383 34.0306 10.6432C34.1379 10.044 33.7342 9.46689 33.135 9.36282C32.5359 9.2556 31.9588 9.65925 31.8547 10.2584C31.8389 10.3467 31.8389 10.4319 31.8421 10.517C31.8736 11.0153 32.2394 11.4473 32.7503 11.5388C32.8512 11.5577 32.9553 11.5577 33.0531 11.5451Z" fill="white"/>
<path d="M15.4091 47.0317C14.8099 46.9245 14.2328 47.3281 14.1287 47.9273C14.0215 48.5265 14.4252 49.1036 15.0243 49.2076C15.4942 49.2896 15.9452 49.0594 16.1722 48.6652C16.2353 48.558 16.2826 48.4413 16.3047 48.312C16.3898 47.8264 16.1407 47.3597 15.7244 47.1452C15.6267 47.0948 15.5226 47.0538 15.4091 47.0317Z" fill="white"/>
<path d="M27.0834 24.7899C27.0267 24.7804 26.973 24.7804 26.9194 24.7773C26.3833 24.7646 25.9008 25.1399 25.8031 25.6855C25.6959 26.2846 26.0995 26.8617 26.6987 26.9658C27.2979 27.073 27.8718 26.6694 27.979 26.0671C27.9853 26.0261 27.9853 25.9882 27.9885 25.9504C28.0263 25.3985 27.6447 24.8908 27.0834 24.7899Z" fill="white"/>
<path d="M4.38434 64.8807C4.21405 64.8933 4.04061 64.8964 3.86085 64.8649C3.48558 64.7987 3.15446 64.641 2.8738 64.4234C1.91828 67.4918 1.12044 70.5696 0.644257 72.4681L1.51148 75.7004C1.83944 74.1962 2.80127 69.9957 4.39065 64.8933L4.38434 64.8807Z" fill="white"/>
</g>
<defs>
<clipPath id="clip0_1_19">
<rect width="206.871" height="76" fill="white" transform="translate(0.335205)"/>
</clipPath>
</defs>
</svg>
