<svg width="318" height="76" viewBox="0 0 318 76" fill="none" xmlns="http://www.w3.org/2000/svg">
<path d="M97.1272 38.2382V43.1736C97.1272 43.5404 97.0306 43.9244 96.8397 44.3157C96.609 44.7886 96.4089 45.2243 96.2541 45.5945C95.7305 46.7194 95.0206 47.7527 94.1444 48.6653C93.2659 49.5799 92.2579 50.3447 91.1479 50.9396C90.0379 51.5339 88.8428 51.9511 87.594 52.1793C86.3507 52.4074 85.0835 52.4147 83.8263 52.2025L83.8179 52.2012C82.2157 51.9577 80.724 51.4172 79.3855 50.5954C78.0433 49.7717 76.8788 48.6886 75.9244 47.3806C75.4016 46.6503 74.9563 45.8392 74.6021 44.9696C74.2502 44.1087 74.0256 43.2293 73.9321 42.3392C73.6853 40.5106 73.8409 38.7503 74.3951 37.1068C74.9501 35.4599 75.801 34.0153 76.9248 32.8128C78.0486 31.611 79.4392 30.6526 81.0605 29.9662C82.4871 29.3613 84.0241 29.0562 85.6354 29.0562C85.8478 29.0562 86.0624 29.0615 86.2771 29.072C87.3234 29.1337 88.3629 29.3347 89.3633 29.669C90.3622 30.0039 91.305 30.4736 92.1651 31.0651C93.0283 31.6601 93.8179 32.3724 94.5124 33.1802C95.2077 33.9901 95.7949 34.8809 96.2464 35.8001C96.4112 36.1935 96.6113 36.6299 96.8397 37.0955C97.0298 37.4881 97.1272 37.8722 97.1272 38.2382ZM99.4714 13H97.2246V32.9031C97.1571 32.8056 97.0927 32.7127 97.0298 32.6238C96.8505 32.3724 96.7968 32.3107 96.7523 32.2663C96.7362 32.2511 96.6902 32.2007 96.609 32.0706C96.507 31.9108 96.4127 31.7881 96.3284 31.7032C95.1387 30.4629 93.7244 29.3533 92.1222 28.4055C90.4871 27.4392 88.7163 26.9152 86.8689 26.8481C85.6776 26.7825 84.481 26.8243 83.3096 26.9709C82.1138 27.1214 80.9432 27.4676 79.8363 27.9976C78.3346 28.6907 76.9724 29.6358 75.788 30.8071C74.6052 31.9765 73.6347 33.3116 72.9026 34.7761C72.1682 36.2452 71.7029 37.8185 71.5197 39.4513C71.335 41.0936 71.4959 42.7663 72.0003 44.4278C72.2985 45.3795 72.6841 46.3247 73.1464 47.2367C73.6178 48.1699 74.2158 49.0308 74.9294 49.8035C76.0555 50.9828 77.3158 51.9883 78.6749 52.7908C80.0456 53.6013 81.6055 54.1631 83.3096 54.4609L83.3165 54.4622C84.0249 54.5757 84.747 54.6327 85.4752 54.6327C86.0203 54.6327 86.5684 54.6008 87.1195 54.5371C88.4036 54.3885 89.6538 54.0795 90.8351 53.6179C92.0203 53.1563 93.1441 52.5381 94.1774 51.78C95.2115 51.0212 96.0923 50.1192 96.7968 49.0985C96.8374 49.0514 96.9034 48.9678 97.0306 48.7874C97.0927 48.6999 97.1571 48.607 97.2246 48.5095V54.1332H99.4714L99.4752 53.6232C99.5718 40.2665 99.5718 26.7706 99.4752 13.5101L99.4714 13Z" fill="white"/>
<path d="M120.187 28.9993C121.569 29.2291 122.847 29.6707 123.987 30.3113C125.456 31.143 126.686 32.1564 127.641 33.3222C128.597 34.4906 129.299 35.7498 129.728 37.0658C130.156 38.3826 130.333 39.7494 130.254 41.1289C130.175 42.5104 129.844 43.8639 129.271 45.1525C128.698 46.4405 127.867 47.6389 126.799 48.7151C125.73 49.7907 124.41 50.6959 122.867 51.4093C121.863 51.893 120.74 52.1916 119.529 52.2971C118.303 52.4061 117.117 52.3513 116.004 52.1368L116.001 52.1362C113.708 51.7066 111.681 50.7259 109.979 49.2215C108.275 47.7177 107.072 45.8486 106.403 43.6688C105.928 42.0822 105.84 40.515 106.139 39.0112C106.445 37.4761 106.992 35.9556 107.761 34.5032C108.58 33.0436 109.748 31.8411 111.231 30.9286C112.736 30.0027 114.376 29.3607 116.099 29.022C116.786 28.8958 117.485 28.8329 118.19 28.8329C118.852 28.8329 119.519 28.8884 120.187 28.9993ZM130.63 33.4237C129.651 32.0756 128.568 30.8758 127.398 29.8443C125.784 28.4221 123.723 27.4308 121.267 26.8976C119.032 26.434 116.909 26.4093 114.956 26.8255C113.007 27.2417 111.256 27.9852 109.752 29.0354C108.252 30.0828 106.984 31.3895 105.984 32.9187C104.984 34.4471 104.302 36.1239 103.957 37.9016C103.613 39.6799 103.63 41.5391 104.008 43.4276C104.388 45.3235 105.224 47.1914 106.495 48.9804C107.571 50.4861 109.003 51.74 110.75 52.7067C112.486 53.6686 114.313 54.2752 116.18 54.509L116.185 54.5097C116.896 54.5918 117.59 54.6326 118.269 54.6326C120.875 54.6326 123.238 54.0267 125.311 52.8222C127.392 51.6131 129.175 49.9543 130.63 47.8787V54.0788H132.854V26.8856H130.63V33.4237Z" fill="white"/>
<path d="M141.353 13H139.023V26.9844H134.936V29.3046H139.023V54.6327H141.353V29.3046H145.344V26.9844H141.353V13Z" fill="white"/>
<path d="M164.354 28.9993C165.686 29.2291 166.919 29.6707 168.017 30.3113C169.435 31.143 170.621 32.1564 171.541 33.3222C172.463 34.4906 173.14 35.7498 173.553 37.0658C173.967 38.3826 174.138 39.7494 174.061 41.1289C173.985 42.5104 173.666 43.8639 173.114 45.1525C172.561 46.4405 171.759 47.6389 170.73 48.7151C169.699 49.7907 168.426 50.6959 166.938 51.4093C165.97 51.893 164.887 52.1916 163.719 52.2971C162.537 52.4061 161.393 52.3513 160.321 52.1368L160.317 52.1362C158.105 51.7066 156.152 50.7259 154.51 49.2215C152.867 47.7177 151.707 45.8486 151.061 43.6688C150.604 42.0822 150.519 40.515 150.807 39.0112C151.102 37.4761 151.63 35.9556 152.371 34.5032C153.161 33.0436 154.288 31.8411 155.718 30.9286C157.169 30.0027 158.75 29.3607 160.411 29.022C161.074 28.8958 161.749 28.8329 162.428 28.8329C163.066 28.8329 163.71 28.8884 164.354 28.9993ZM174.423 33.4237C173.479 32.0756 172.436 30.8758 171.307 29.8443C169.751 28.4221 167.763 27.4308 165.395 26.8976C163.24 26.434 161.193 26.4093 159.31 26.8255C157.43 27.2417 155.741 27.9852 154.291 29.0354C152.844 30.0828 151.622 31.3895 150.658 32.9187C149.693 34.4471 149.036 36.1239 148.704 37.9016C148.371 39.6799 148.387 41.5391 148.752 43.4276C149.119 45.3235 149.925 47.1914 151.152 48.9804C152.189 50.4861 153.569 51.74 155.254 52.7067C156.928 53.6686 158.69 54.2752 160.489 54.509L160.495 54.5097C161.18 54.5918 161.849 54.6326 162.504 54.6326C165.017 54.6326 167.295 54.0267 169.295 52.8222C171.302 51.6131 173.02 49.9543 174.423 47.8787V54.0788H176.568V26.8856H174.423V33.4237Z" fill="white"/>
<path d="M193.813 26.5437C191.779 26.6264 189.84 27.1673 188.051 28.1518C186.202 29.1646 184.681 30.4675 183.531 32.0217C182.385 33.5708 181.579 35.2733 181.135 37.0836C180.691 38.8919 180.613 40.7749 180.902 42.6777C181.192 44.5805 181.841 46.4026 182.829 48.0907C183.722 49.6326 184.976 50.9866 186.555 52.1155C188.136 53.2471 189.847 53.9881 191.64 54.3177C192.656 54.5277 193.661 54.6326 194.642 54.6326C195.182 54.6326 195.715 54.6005 196.24 54.5368C197.718 54.3564 199.129 53.958 200.433 53.3515C201.736 52.7469 202.944 51.9429 204.023 50.963C205.087 49.9961 206.022 48.8698 206.803 47.6149C206.861 47.5394 206.931 47.4212 207.048 47.1804C207.151 46.9677 207.254 46.738 207.357 46.4925C207.462 46.243 207.55 45.9949 207.623 45.7554C207.697 45.5113 207.807 45.1417 207.543 44.8824L207.452 44.7926L205.898 44.2996L205.672 44.6225L205.536 44.826C205.082 45.7232 204.596 46.5778 204.094 47.3668C203.605 48.1327 202.974 48.8718 202.237 49.5465C200.593 50.9033 198.794 51.7664 196.893 52.1103C194.981 52.4562 193.118 52.3735 191.355 51.8629C189.592 51.3522 187.995 50.4221 186.606 49.0969C185.218 47.7737 184.209 46.1078 183.609 44.1499C183.321 43.1733 183.135 42.1934 183.056 41.2363C182.978 40.2958 183.049 39.3329 183.269 38.3779C183.494 37.4242 183.813 36.4266 184.217 35.4112C184.603 34.4371 185.159 33.5858 185.868 32.8802C187.309 31.4448 188.789 30.3631 190.269 29.6647C191.721 28.9802 193.518 28.6789 195.595 28.7688C196.72 28.8286 197.796 29.0701 198.792 29.4856C199.801 29.9069 200.736 30.4628 201.569 31.1376C202.414 31.8216 203.18 32.6065 203.847 33.4703C204.515 34.3367 205.082 35.2543 205.53 36.1994L205.672 36.4988H206.242L206.354 36.4449C206.478 36.3859 206.633 36.3202 206.817 36.246C206.926 36.2041 207.005 36.1738 207.01 36.1666H207.172L207.793 35.7722L207.666 35.4052C207.012 33.5018 205.947 31.8458 204.502 30.4832C203.063 29.1285 201.413 28.102 199.596 27.4311C197.975 26.8332 196.248 26.5306 194.462 26.5306C194.247 26.5306 194.03 26.5346 193.813 26.5437Z" fill="white"/>
<path d="M221.759 26.8252C219.878 27.2414 218.19 27.9849 216.74 29.0351C215.293 30.0832 214.07 31.3893 213.107 32.9185C212.142 34.4476 211.485 36.1244 211.153 37.9014C210.82 39.6798 210.836 41.5396 211.201 43.4281C211.567 45.3234 212.374 47.1913 213.6 48.9809C214.638 50.4868 216.018 51.74 217.703 52.7073C219.377 53.6693 221.138 54.2752 222.939 54.509L222.943 54.5097C223.628 54.5918 224.298 54.6326 224.953 54.6326C227.467 54.6326 229.744 54.0267 231.743 52.8222C233.75 51.6137 235.47 49.9543 236.871 47.8794V54.0795H239.017V26.8854H236.871V33.4235C235.928 32.0754 234.885 30.8762 233.756 29.8441C232.198 28.4225 230.212 27.4311 227.845 26.8973C226.708 26.6529 225.601 26.5306 224.533 26.5306C223.576 26.5306 222.649 26.6288 221.759 26.8252ZM222.768 52.1368H222.766C220.554 51.7066 218.601 50.7265 216.959 49.2221C215.316 47.7183 214.156 45.8485 213.51 43.6694C213.053 42.082 212.967 40.5154 213.257 39.0117C213.551 37.4765 214.079 35.9561 214.821 34.503C215.61 33.044 216.737 31.8409 218.167 30.9283C219.618 30.0024 221.199 29.3611 222.861 29.0218C223.523 28.8961 224.197 28.8333 224.877 28.8333C225.515 28.8333 226.158 28.8881 226.803 28.9997C228.135 29.2295 229.367 29.6704 230.466 30.3111C231.883 31.1428 233.07 32.1562 233.99 33.3226C234.911 34.4904 235.589 35.7503 236.002 37.0657C236.415 38.3824 236.587 39.7499 236.51 41.1287C236.432 42.5102 236.114 43.8644 235.561 45.1531C235.01 46.441 234.207 47.6395 233.177 48.715C232.147 49.7913 230.874 50.6965 229.386 51.4093C228.418 51.893 227.335 52.1915 226.168 52.2978C225.773 52.3339 225.382 52.3519 224.997 52.3519C224.229 52.3519 223.484 52.2804 222.768 52.1368Z" fill="white"/>
<path d="M259.977 27.5714L249.607 39.8963C249.49 40.0173 249.424 40.1769 249.425 40.346C249.426 40.5695 249.537 40.7427 249.624 40.848C249.675 40.9615 249.739 41.0613 249.818 41.1495L259.717 54.6327H262.533L252.161 40.486L262.956 27.5714H259.977Z" fill="white"/>
<path d="M244.221 54.6327H246.303V13H244.221V54.6327Z" fill="white"/>
<path d="M304.961 26.5313C303.78 26.5487 302.718 26.6755 301.783 26.9144C300.901 27.1814 300.05 27.5452 299.255 27.9937C298.441 28.4522 297.723 29.0222 297.123 29.687C296.516 30.3584 296.039 31.134 295.704 31.9916C295.361 32.8687 295.239 33.8431 295.339 34.875C295.41 35.8034 295.736 36.6804 296.308 37.4801C296.853 38.2389 297.463 38.8964 298.148 39.455C298.896 39.987 299.71 40.4502 300.57 40.8306C301.451 41.2231 302.372 41.456 303.293 41.5228C303.957 41.5875 304.621 41.6442 305.285 41.6923C305.922 41.739 306.547 41.8177 307.141 41.9265C307.722 42.034 308.305 42.1962 308.871 42.4084C309.423 42.6173 309.969 42.919 310.497 43.3088C311.301 43.8975 311.913 44.6403 312.313 45.5181C312.703 46.3704 312.756 47.2434 312.48 48.1731C312.139 49.2244 311.512 50.0339 310.567 50.6487C309.58 51.2915 308.551 51.756 307.498 52.033C306.646 52.2746 305.631 52.358 304.482 52.2805C303.33 52.2052 302.223 51.9568 301.191 51.5444C300.178 51.1386 299.302 50.5539 298.586 49.8071C297.896 49.0876 297.518 48.1985 297.433 47.0906L297.415 46.8656L297.243 46.7261C296.984 46.5172 296.663 46.4218 296.283 46.4465C296.045 46.4625 295.868 46.4692 295.75 46.4692H295.291L295.246 46.937C295.142 48.043 295.364 49.0669 295.907 49.9792C296.425 50.8536 297.113 51.6165 297.948 52.2479C298.765 52.8679 299.669 53.3771 300.635 53.761C301.595 54.144 302.516 54.3897 303.368 54.4911C303.969 54.5859 304.586 54.6326 305.214 54.6326C306.118 54.6326 307.046 54.5358 307.991 54.341C309.627 54.0032 311.047 53.2984 312.204 52.2499C313.337 51.2614 314.109 50.1714 314.5 49.0107C314.891 47.8441 314.96 46.6927 314.702 45.5895C314.446 44.4922 313.881 43.4636 313.021 42.5332C312.174 41.6155 311.092 40.8767 309.79 40.33C308.745 39.9302 307.699 39.6846 306.682 39.6005C305.719 39.5211 304.711 39.4163 303.685 39.2888L303.626 39.2848C303.582 39.2834 303.517 39.2695 303.426 39.2488C303.281 39.216 303.171 39.1981 303.082 39.1913C302.586 39.0699 302.084 38.911 301.589 38.7161C301.069 38.5139 300.561 38.2856 300.086 38.0414C299.436 37.695 298.868 37.187 298.398 36.531C297.934 35.8842 297.655 35.1807 297.572 34.4372C297.517 33.9619 297.559 33.4707 297.697 32.9768C297.834 32.4896 298.069 32.0444 298.394 31.656C299.422 30.4545 300.6 29.6643 301.893 29.3072C303.236 28.9381 304.683 28.7819 306.218 28.8434C306.879 28.8434 307.544 28.9635 308.193 29.1984C308.872 29.4461 309.521 29.7437 310.127 30.0828C310.868 30.492 311.475 31.0452 311.929 31.7274C312.386 32.4134 312.675 33.1911 312.789 34.0387L312.85 34.4846H314.916L314.971 34.032C315.044 33.432 314.962 32.8259 314.725 32.2299C314.512 31.6946 314.271 31.2174 314.009 30.8116C313.498 29.8111 312.726 28.9815 311.716 28.3441C310.734 27.724 309.647 27.2575 308.487 26.9571C307.381 26.6701 306.245 26.5306 305.102 26.5306C305.055 26.5306 305.008 26.5306 304.961 26.5313Z" fill="white"/>
<path d="M262.956 40.5544C262.956 48.5797 269.049 54.6326 277.127 54.6326C282.953 54.6326 287.577 51.685 290.164 46.3291H287.629C285.454 50.2312 281.725 52.3794 277.127 52.3794C270.646 52.3794 265.799 47.9227 265.341 41.5409L265.329 41.3624H291.016C291.037 41.0847 291.058 40.7743 291.058 40.4888C291.058 36.6576 289.68 33.1369 287.178 30.5751C284.628 27.9667 281.059 26.5306 277.127 26.5306C269.049 26.5306 262.956 32.5593 262.956 40.5544ZM265.39 39.0422C266.07 32.961 270.897 28.713 277.127 28.713C283.385 28.713 288.029 32.8645 288.683 39.0435L288.703 39.2273H265.37L265.39 39.0422Z" fill="white"/>
<path d="M17.7981 13.5857L2.90983 39.0753C2.66062 39.5019 2.70994 40.0379 3.0327 40.4136C3.35685 40.7886 3.88428 40.9241 4.35299 40.7517L55.5432 21.8867V42.8387L5.12353 61.1563V52.128L44.2412 37.7611C44.749 38.2555 45.4475 38.5614 46.2185 38.5614C47.7736 38.5614 49.0355 37.3196 49.0355 35.7881C49.0355 34.2552 47.7736 33.0135 46.2185 33.0135C44.7382 33.0135 43.5265 34.1405 43.4138 35.5714L3.52301 50.2228C3.45417 50.2482 3.39065 50.2804 3.32922 50.3167C3.30961 50.3281 3.2914 50.3415 3.27249 50.3542C3.23197 50.3811 3.19346 50.4106 3.15634 50.4421C3.13874 50.4583 3.12053 50.473 3.10363 50.4898C3.0645 50.528 3.02868 50.5689 2.99557 50.6125C2.98677 50.6232 2.97736 50.6333 2.96926 50.644C2.92943 50.6997 2.89563 50.7581 2.86591 50.8199C2.85781 50.8359 2.85241 50.8527 2.84569 50.8701C2.82609 50.9165 2.8085 50.9634 2.79568 51.0124C2.78959 51.0352 2.78418 51.0573 2.77878 51.0814C2.76998 51.1264 2.76327 51.1727 2.75918 51.219C2.75717 51.2431 2.75447 51.2666 2.75378 51.2901C2.75316 51.2988 2.75177 51.3082 2.75177 51.3176V62.8314C2.75177 63.2137 2.94155 63.572 3.25898 63.7907C3.46088 63.9289 3.6979 64 3.93769 64C4.07545 64 4.21453 63.9759 4.34758 63.9275L57.1392 44.748C57.6054 44.5789 57.9149 44.1422 57.9149 43.6525V20.2298C57.9164 20.1365 57.9079 20.0419 57.8863 19.948C57.8647 19.8521 57.8307 19.7608 57.7867 19.6743C57.6988 19.5026 57.5706 19.3597 57.4194 19.253C57.3106 19.1758 57.1871 19.1168 57.0535 19.0792C57.0026 19.0645 56.9494 19.0531 56.8953 19.0457L19.0151 13.0147C18.9516 13.0047 18.8888 13 18.826 13C18.4059 13 18.0122 13.2201 17.7981 13.5857ZM19.4453 15.4499L52.1242 20.6524L6.6086 37.4263L19.4453 15.4499Z" fill="white"/>
</svg>
