<svg width="316" height="76" viewBox="0 0 316 76" fill="none" xmlns="http://www.w3.org/2000/svg">
<path d="M119.817 39.6109V47.3042C119.515 47.6686 119.048 48.0642 118.417 48.4908C117.786 48.9086 116.973 49.2686 115.977 49.5708C114.982 49.873 113.777 50.0241 112.364 50.0241C111.11 50.0241 109.968 49.8197 108.937 49.4108C107.906 48.993 107.017 48.3842 106.271 47.5842C105.533 46.7842 104.964 45.8064 104.564 44.6509C104.164 43.4864 103.964 42.1576 103.964 40.6643V39.4509C103.964 37.9576 104.155 36.6287 104.537 35.4643C104.928 34.2999 105.484 33.3177 106.204 32.5177C106.924 31.7177 107.782 31.1088 108.777 30.691C109.773 30.2733 110.879 30.0644 112.097 30.0644C113.786 30.0644 115.173 30.3399 116.257 30.891C117.341 31.4333 118.168 32.1888 118.737 33.1577C119.315 34.1177 119.67 35.2199 119.804 36.4643H115.924C115.826 35.8065 115.639 35.2332 115.364 34.7443C115.088 34.2554 114.693 33.8732 114.177 33.5977C113.67 33.3221 113.013 33.1843 112.204 33.1843C111.537 33.1843 110.942 33.3221 110.417 33.5977C109.902 33.8643 109.466 34.2599 109.11 34.7843C108.755 35.3088 108.484 35.9576 108.297 36.731C108.11 37.5043 108.017 38.4021 108.017 39.4243V40.6643C108.017 41.6776 108.115 42.5753 108.31 43.3575C108.506 44.1309 108.795 44.7842 109.177 45.3175C109.568 45.842 110.048 46.2375 110.617 46.5042C111.186 46.7708 111.848 46.9042 112.604 46.9042C113.235 46.9042 113.759 46.8508 114.177 46.7442C114.604 46.6375 114.946 46.5086 115.204 46.3575C115.47 46.1975 115.675 46.0464 115.817 45.9042V42.4642H112.164V39.6109H119.817Z" fill="white"/>
<path d="M122.19 42.6909V42.4109C122.19 41.3531 122.341 40.3798 122.644 39.4909C122.946 38.5932 123.386 37.8154 123.964 37.1576C124.541 36.4999 125.252 35.9888 126.097 35.6243C126.941 35.251 127.91 35.0643 129.004 35.0643C130.097 35.0643 131.07 35.251 131.924 35.6243C132.777 35.9888 133.492 36.4999 134.07 37.1576C134.657 37.8154 135.101 38.5932 135.403 39.4909C135.706 40.3798 135.857 41.3531 135.857 42.4109V42.6909C135.857 43.7398 135.706 44.7131 135.403 45.6109C135.101 46.4997 134.657 47.2775 134.07 47.9442C133.492 48.6019 132.781 49.113 131.937 49.4775C131.092 49.8419 130.124 50.0241 129.03 50.0241C127.937 50.0241 126.964 49.8419 126.11 49.4775C125.266 49.113 124.55 48.6019 123.964 47.9442C123.386 47.2775 122.946 46.4997 122.644 45.6109C122.341 44.7131 122.19 43.7398 122.19 42.6909ZM126.03 42.4109V42.6909C126.03 43.2953 126.084 43.8598 126.19 44.3842C126.297 44.9086 126.466 45.3709 126.697 45.7709C126.937 46.162 127.248 46.4686 127.63 46.6908C128.012 46.9131 128.479 47.0242 129.03 47.0242C129.564 47.0242 130.021 46.9131 130.404 46.6908C130.786 46.4686 131.092 46.162 131.324 45.7709C131.555 45.3709 131.724 44.9086 131.83 44.3842C131.946 43.8598 132.004 43.2953 132.004 42.6909V42.4109C132.004 41.8242 131.946 41.2731 131.83 40.7576C131.724 40.2331 131.55 39.7709 131.31 39.3709C131.079 38.962 130.772 38.6421 130.39 38.4109C130.008 38.1798 129.546 38.0643 129.004 38.0643C128.461 38.0643 127.999 38.1798 127.617 38.4109C127.244 38.6421 126.937 38.962 126.697 39.3709C126.466 39.7709 126.297 40.2331 126.19 40.7576C126.084 41.2731 126.03 41.8242 126.03 42.4109Z" fill="white"/>
<path d="M149.257 30.3444V49.7575H145.257V30.3444H149.257ZM156.99 38.6376V41.7576H148.163V38.6376H156.99ZM157.923 30.3444V33.4777H148.163V30.3444H157.923Z" fill="white"/>
<path d="M167.336 46.5042V40.0776C167.336 39.6154 167.261 39.2198 167.11 38.8909C166.959 38.5532 166.723 38.2909 166.403 38.1043C166.092 37.9176 165.688 37.8243 165.19 37.8243C164.763 37.8243 164.394 37.8998 164.083 38.051C163.772 38.1932 163.532 38.4021 163.363 38.6776C163.194 38.9443 163.11 39.2598 163.11 39.6243H159.27C159.27 39.0109 159.412 38.4287 159.696 37.8776C159.981 37.3265 160.394 36.8421 160.936 36.4243C161.479 35.9976 162.123 35.6643 162.87 35.4243C163.625 35.1843 164.47 35.0643 165.403 35.0643C166.523 35.0643 167.519 35.251 168.39 35.6243C169.261 35.9976 169.945 36.5576 170.443 37.3043C170.95 38.051 171.203 38.9843 171.203 40.1043V46.2775C171.203 47.0686 171.252 47.7175 171.35 48.2242C171.447 48.7219 171.59 49.1575 171.776 49.5308V49.7575H167.896C167.71 49.3664 167.567 48.8775 167.47 48.2908C167.381 47.6953 167.336 47.0997 167.336 46.5042ZM167.843 40.9709L167.87 43.1442H165.723C165.216 43.1442 164.776 43.202 164.403 43.3175C164.03 43.4331 163.723 43.5975 163.483 43.8109C163.243 44.0153 163.065 44.2553 162.95 44.5309C162.843 44.8064 162.79 45.1086 162.79 45.4375C162.79 45.7664 162.865 46.0642 163.016 46.3308C163.168 46.5886 163.385 46.7931 163.67 46.9442C163.954 47.0864 164.288 47.1575 164.67 47.1575C165.248 47.1575 165.75 47.0419 166.176 46.8108C166.603 46.5797 166.932 46.2953 167.163 45.9575C167.403 45.6197 167.527 45.2997 167.536 44.9975L168.55 46.6242C168.407 46.9886 168.212 47.3664 167.963 47.7575C167.723 48.1486 167.416 48.5175 167.043 48.8641C166.67 49.2019 166.221 49.4819 165.696 49.7041C165.172 49.9175 164.55 50.0241 163.83 50.0241C162.914 50.0241 162.083 49.8419 161.336 49.4775C160.599 49.1041 160.012 48.593 159.576 47.9442C159.15 47.2864 158.937 46.5397 158.937 45.7042C158.937 44.9486 159.079 44.2775 159.363 43.6909C159.648 43.1042 160.065 42.6109 160.616 42.2109C161.176 41.802 161.874 41.4954 162.71 41.2909C163.545 41.0776 164.514 40.9709 165.616 40.9709H167.843Z" fill="white"/>
<path d="M178.003 38.4776V49.7575H174.163V35.331H177.776L178.003 38.4776ZM182.35 35.2377L182.283 38.7976C182.096 38.7709 181.87 38.7487 181.603 38.7309C181.345 38.7043 181.11 38.6909 180.896 38.6909C180.354 38.6909 179.883 38.7621 179.483 38.9043C179.092 39.0376 178.763 39.2376 178.496 39.5043C178.238 39.7709 178.043 40.0954 177.91 40.4776C177.785 40.8598 177.714 41.2954 177.696 41.7842L176.923 41.5442C176.923 40.6109 177.016 39.7532 177.203 38.9709C177.39 38.1798 177.661 37.491 178.016 36.9043C178.381 36.3176 178.825 35.8643 179.35 35.5443C179.874 35.2243 180.474 35.0643 181.15 35.0643C181.363 35.0643 181.581 35.0821 181.803 35.1177C182.025 35.1443 182.207 35.1843 182.35 35.2377Z" fill="white"/>
<path d="M188.003 38.3176V49.7575H184.15V35.331H187.763L188.003 38.3176ZM187.469 42.0376H186.403C186.403 41.0331 186.523 40.1087 186.763 39.2643C187.012 38.4109 187.372 37.6732 187.843 37.051C188.323 36.4199 188.914 35.931 189.616 35.5843C190.318 35.2377 191.132 35.0643 192.056 35.0643C192.696 35.0643 193.283 35.1621 193.816 35.3577C194.349 35.5443 194.807 35.8421 195.189 36.251C195.58 36.651 195.883 37.1754 196.096 37.8243C196.309 38.4643 196.416 39.2332 196.416 40.1309V49.7575H192.576V40.5576C192.576 39.8998 192.487 39.3932 192.309 39.0376C192.132 38.6821 191.878 38.4332 191.549 38.2909C191.229 38.1487 190.843 38.0776 190.389 38.0776C189.892 38.0776 189.456 38.1798 189.083 38.3843C188.718 38.5887 188.416 38.8732 188.176 39.2376C187.936 39.5932 187.758 40.0109 187.643 40.4909C187.527 40.9709 187.469 41.4865 187.469 42.0376ZM196.056 41.5976L194.683 41.7709C194.683 40.8287 194.798 39.9531 195.029 39.1443C195.269 38.3354 195.62 37.6243 196.083 37.011C196.554 36.3976 197.136 35.9221 197.829 35.5843C198.523 35.2377 199.323 35.0643 200.229 35.0643C200.923 35.0643 201.554 35.1665 202.123 35.371C202.691 35.5665 203.176 35.8821 203.576 36.3176C203.985 36.7443 204.296 37.3043 204.509 37.9976C204.731 38.6909 204.843 39.5398 204.843 40.5443V49.7575H200.989V40.5443C200.989 39.8776 200.9 39.3709 200.723 39.0243C200.554 38.6687 200.305 38.4243 199.976 38.2909C199.656 38.1487 199.274 38.0776 198.829 38.0776C198.367 38.0776 197.963 38.1709 197.616 38.3576C197.269 38.5354 196.98 38.7843 196.749 39.1043C196.518 39.4243 196.345 39.7976 196.229 40.2243C196.114 40.642 196.056 41.0998 196.056 41.5976Z" fill="white"/>
<path d="M217.522 30.3444L221.576 39.1976L225.629 30.3444H229.989L223.602 42.6909V49.7575H219.549V42.6909L213.149 30.3444H217.522Z" fill="white"/>
<path d="M230.029 42.6909V42.4109C230.029 41.3531 230.18 40.3798 230.482 39.4909C230.784 38.5932 231.224 37.8154 231.802 37.1576C232.38 36.4999 233.091 35.9888 233.936 35.6243C234.78 35.251 235.749 35.0643 236.842 35.0643C237.935 35.0643 238.909 35.251 239.762 35.6243C240.615 35.9888 241.331 36.4999 241.909 37.1576C242.495 37.8154 242.94 38.5932 243.242 39.4909C243.544 40.3798 243.695 41.3531 243.695 42.4109V42.6909C243.695 43.7398 243.544 44.7131 243.242 45.6109C242.94 46.4997 242.495 47.2775 241.909 47.9442C241.331 48.6019 240.62 49.113 239.775 49.4775C238.931 49.8419 237.962 50.0241 236.869 50.0241C235.776 50.0241 234.802 49.8419 233.949 49.4775C233.104 49.113 232.389 48.6019 231.802 47.9442C231.224 47.2775 230.784 46.4997 230.482 45.6109C230.18 44.7131 230.029 43.7398 230.029 42.6909ZM233.869 42.4109V42.6909C233.869 43.2953 233.922 43.8598 234.029 44.3842C234.136 44.9086 234.304 45.3709 234.536 45.7709C234.776 46.162 235.087 46.4686 235.469 46.6908C235.851 46.9131 236.318 47.0242 236.869 47.0242C237.402 47.0242 237.86 46.9131 238.242 46.6908C238.624 46.4686 238.931 46.162 239.162 45.7709C239.393 45.3709 239.562 44.9086 239.669 44.3842C239.784 43.8598 239.842 43.2953 239.842 42.6909V42.4109C239.842 41.8242 239.784 41.2731 239.669 40.7576C239.562 40.2331 239.389 39.7709 239.149 39.3709C238.918 38.962 238.611 38.6421 238.229 38.4109C237.847 38.1798 237.384 38.0643 236.842 38.0643C236.3 38.0643 235.838 38.1798 235.456 38.4109C235.082 38.6421 234.776 38.962 234.536 39.3709C234.304 39.7709 234.136 40.2331 234.029 40.7576C233.922 41.2731 233.869 41.8242 233.869 42.4109Z" fill="white"/>
<path d="M254.589 46.3042V35.331H258.429V49.7575H254.815L254.589 46.3042ZM255.015 43.3442L256.149 43.3175C256.149 44.2775 256.037 45.1709 255.815 45.9975C255.593 46.8153 255.26 47.5264 254.815 48.1308C254.371 48.7264 253.811 49.193 253.135 49.5308C252.46 49.8597 251.664 50.0241 250.749 50.0241C250.046 50.0241 249.398 49.9264 248.802 49.7308C248.215 49.5264 247.709 49.2108 247.282 48.7841C246.864 48.3486 246.535 47.793 246.295 47.1175C246.064 46.4331 245.949 45.6109 245.949 44.6509V35.331H249.789V44.6775C249.789 45.1042 249.838 45.4642 249.935 45.7575C250.042 46.0508 250.189 46.2908 250.375 46.4775C250.562 46.6642 250.78 46.7975 251.029 46.8775C251.286 46.9575 251.571 46.9975 251.882 46.9975C252.673 46.9975 253.295 46.8375 253.749 46.5175C254.211 46.1975 254.535 45.762 254.722 45.2109C254.917 44.6509 255.015 44.0287 255.015 43.3442Z" fill="white"/>
<path d="M265.202 38.4776V49.7575H261.362V35.331H264.975L265.202 38.4776ZM269.548 35.2377L269.482 38.7976C269.295 38.7709 269.068 38.7487 268.802 38.7309C268.544 38.7043 268.308 38.6909 268.095 38.6909C267.553 38.6909 267.082 38.7621 266.682 38.9043C266.291 39.0376 265.962 39.2376 265.695 39.5043C265.437 39.7709 265.242 40.0954 265.108 40.4776C264.984 40.8598 264.913 41.2954 264.895 41.7842L264.122 41.5442C264.122 40.6109 264.215 39.7532 264.402 38.9709C264.588 38.1798 264.86 37.491 265.215 36.9043C265.58 36.3176 266.024 35.8643 266.548 35.5443C267.073 35.2243 267.673 35.0643 268.348 35.0643C268.562 35.0643 268.78 35.0821 269.002 35.1177C269.224 35.1443 269.406 35.1843 269.548 35.2377Z" fill="white"/>
<path d="M279.162 45.7709C279.162 45.4953 279.082 45.2464 278.922 45.0242C278.762 44.802 278.464 44.5975 278.028 44.4109C277.602 44.2153 276.984 44.0375 276.175 43.8775C275.446 43.7175 274.766 43.5175 274.135 43.2776C273.513 43.0287 272.971 42.7309 272.508 42.3842C272.055 42.0376 271.7 41.6287 271.442 41.1576C271.184 40.6776 271.055 40.1309 271.055 39.5176C271.055 38.9132 271.184 38.3443 271.442 37.811C271.708 37.2776 272.086 36.8065 272.575 36.3976C273.073 35.9799 273.677 35.6554 274.388 35.4243C275.108 35.1843 275.917 35.0643 276.815 35.0643C278.068 35.0643 279.144 35.2643 280.042 35.6643C280.948 36.0643 281.642 36.6154 282.122 37.3176C282.61 38.011 282.855 38.8021 282.855 39.6909H279.015C279.015 39.3176 278.935 38.9843 278.775 38.6909C278.624 38.3887 278.384 38.1532 278.055 37.9843C277.735 37.8065 277.317 37.7176 276.802 37.7176C276.375 37.7176 276.006 37.7932 275.695 37.9443C275.384 38.0865 275.144 38.2821 274.975 38.5309C274.815 38.7709 274.735 39.0376 274.735 39.3309C274.735 39.5532 274.779 39.7532 274.868 39.9309C274.966 40.0998 275.122 40.2554 275.335 40.3976C275.548 40.5398 275.824 40.6731 276.162 40.7976C276.508 40.9131 276.935 41.0198 277.442 41.1176C278.482 41.3309 279.411 41.6109 280.228 41.9576C281.046 42.2953 281.695 42.7576 282.175 43.3442C282.655 43.922 282.895 44.682 282.895 45.6242C282.895 46.2642 282.753 46.8508 282.468 47.3842C282.184 47.9175 281.775 48.3842 281.242 48.7841C280.708 49.1753 280.068 49.4819 279.322 49.7041C278.584 49.9175 277.753 50.0241 276.828 50.0241C275.486 50.0241 274.348 49.7841 273.415 49.3041C272.491 48.8241 271.788 48.2153 271.308 47.4775C270.837 46.7308 270.602 45.9664 270.602 45.1842H274.242C274.259 45.7086 274.393 46.1308 274.642 46.4508C274.899 46.7708 275.224 47.0019 275.615 47.1442C276.015 47.2864 276.446 47.3575 276.908 47.3575C277.406 47.3575 277.819 47.2908 278.148 47.1575C278.477 47.0153 278.726 46.8286 278.895 46.5975C279.073 46.3575 279.162 46.082 279.162 45.7709Z" fill="white"/>
<path d="M292.028 50.0241C290.908 50.0241 289.904 49.8464 289.015 49.4908C288.126 49.1264 287.37 48.6241 286.748 47.9842C286.135 47.3442 285.664 46.602 285.335 45.7575C285.006 44.9042 284.842 43.9975 284.842 43.0376V42.5042C284.842 41.4109 284.997 40.4109 285.308 39.5043C285.619 38.5976 286.064 37.811 286.642 37.1443C287.228 36.4776 287.939 35.9665 288.775 35.611C289.61 35.2465 290.553 35.0643 291.601 35.0643C292.624 35.0643 293.53 35.2332 294.321 35.571C295.113 35.9088 295.775 36.3888 296.308 37.011C296.85 37.6332 297.259 38.3798 297.535 39.2509C297.81 40.1131 297.948 41.0731 297.948 42.1309V43.7309H286.482V41.1709H294.175V40.8776C294.175 40.3443 294.077 39.8687 293.881 39.4509C293.695 39.0243 293.41 38.6865 293.028 38.4376C292.646 38.1887 292.157 38.0643 291.561 38.0643C291.055 38.0643 290.619 38.1754 290.255 38.3976C289.89 38.6198 289.593 38.9309 289.361 39.3309C289.139 39.7309 288.97 40.202 288.855 40.7442C288.748 41.2776 288.695 41.8642 288.695 42.5042V43.0376C288.695 43.6153 288.775 44.1487 288.935 44.6375C289.104 45.1264 289.339 45.5486 289.641 45.9042C289.953 46.2597 290.326 46.5353 290.761 46.7308C291.206 46.9264 291.708 47.0242 292.268 47.0242C292.961 47.0242 293.606 46.8908 294.201 46.6242C294.806 46.3486 295.326 45.9353 295.761 45.3842L297.628 47.4108C297.326 47.8464 296.913 48.2642 296.388 48.6641C295.873 49.0641 295.25 49.393 294.521 49.6508C293.793 49.8997 292.961 50.0241 292.028 50.0241Z" fill="white"/>
<path d="M304.188 29.2777V49.7575H300.335V29.2777H304.188Z" fill="white"/>
<path d="M312.255 49.7575H308.388V34.051C308.388 32.9577 308.601 32.0377 309.028 31.291C309.463 30.5355 310.072 29.9666 310.855 29.5844C311.646 29.1933 312.583 28.9977 313.668 28.9977C314.023 28.9977 314.366 29.0244 314.695 29.0777C315.023 29.1222 315.343 29.18 315.654 29.2511L315.615 32.1444C315.446 32.0999 315.268 32.0688 315.081 32.051C314.895 32.0333 314.677 32.0244 314.428 32.0244C313.966 32.0244 313.57 32.1044 313.241 32.2644C312.921 32.4155 312.677 32.6421 312.508 32.9444C312.339 33.2466 312.255 33.6155 312.255 34.051V49.7575ZM315.135 35.331V38.051H306.241V35.331H315.135Z" fill="white"/>
<path d="M88.6204 47.4566C87.9991 47.5187 87.3317 47.2626 86.7103 46.8357C86.4802 46.6804 86.2731 46.5019 86.0353 46.37C81.6321 43.7854 78.5713 40.1064 76.5078 35.3563C74.6284 31.0176 72.2504 26.9039 70.1025 22.6816C69.7649 22.0141 69.3507 21.4786 68.6756 21.0827C61.5262 16.9148 54.3921 12.739 47.281 8.50897C46.5293 8.0588 46.0383 8.12089 45.3326 8.54002C38.2598 12.739 31.1641 16.8992 24.0607 21.0517C23.3933 21.4398 22.9714 21.9443 22.6185 22.6273C19.8032 28.1613 16.9419 33.6643 14.142 39.1983C13.2291 41.0067 12.0401 42.5125 10.3525 43.6457C8.94867 44.5926 7.62925 45.6637 6.24078 46.6339C4.3537 47.9456 2.21347 47.6739 1.01678 46.0207C-0.310314 44.1812 -0.0264844 41.8993 2.07539 40.6497C5.89558 38.3755 8.28896 35.0614 10.107 31.0641C11.9864 26.9272 14.2494 22.9688 16.2899 18.894C17.1644 17.1399 18.3918 15.8359 20.0794 14.8502C28.1187 10.1544 36.1426 5.40434 44.1666 0.654247C45.5934 -0.191766 46.9895 -0.230573 48.424 0.615439C56.4173 5.32672 64.4028 10.0535 72.4114 14.7338C74.2602 15.8126 75.5719 17.2718 76.5385 19.1967C79.2694 24.6608 82.123 30.0707 84.8846 35.527C85.3986 36.5516 86.066 37.3355 86.9942 37.9797C88.421 38.9732 89.8401 39.99 91.1749 41.0999C92.3792 42.1011 92.7091 43.7621 92.1491 45.1204C91.5278 46.6339 90.285 47.4876 88.6204 47.4566Z" fill="white"/>
<path fill-rule="evenodd" clip-rule="evenodd" d="M17.4317 75.9966H46.0678C49.3133 75.9966 52.5578 75.9975 55.8018 75.9983C62.2882 76 68.7722 76.0018 75.2563 75.9966C77.5576 75.9966 78.3861 75.1506 78.3861 72.8143C78.3886 70.3485 78.3861 67.8835 78.3835 65.4187C78.3784 60.4901 78.3733 55.5627 78.4091 50.6317C78.4244 48.4895 78.4014 46.4638 76.4913 45.0201C76.2767 44.8531 76.145 44.5702 76.014 44.2889C75.9624 44.1781 75.911 44.0676 75.8546 43.9645C74.9059 42.2481 73.9565 40.5323 73.0072 38.8168C70.8402 34.9007 68.674 30.986 66.5189 27.0676C65.9436 26.0275 65.1765 25.2514 64.1332 24.677L64.1329 24.6769C58.932 21.8129 53.7311 18.9489 48.5763 16.0073C46.973 15.0914 45.5615 15.0914 43.966 16.0228C39.2964 18.7442 34.5875 21.4057 29.8756 24.0689C29.4942 24.2845 29.1127 24.5002 28.7312 24.7158C27.7416 25.2746 27.0359 26.0353 26.4836 27.0443C24.5862 30.5009 22.6713 33.9456 20.7568 37.3895C19.5676 39.5289 18.3785 41.668 17.1939 43.8093C16.7873 44.5389 16.3578 45.2452 15.6444 45.7109C14.371 46.5414 13.8877 47.7056 13.8954 49.2269C13.9184 55.0134 13.9155 60.8043 13.9126 66.593C13.9117 68.5222 13.9107 70.4512 13.9107 72.3797C13.9107 75.3058 14.5858 75.9966 17.4317 75.9966ZM29.1681 45.0522C29.9701 45.7508 31.0667 46.1078 32.2681 45.9749C32.3184 45.9631 32.3709 45.9469 32.4252 45.9302C32.4671 45.9173 32.5101 45.904 32.554 45.8922C32.8235 45.8215 33.1308 45.807 33.4259 46.2464C34.2564 47.4687 35.1199 48.6675 35.9839 49.867C36.4367 50.4957 36.8897 51.1246 37.3382 51.7572C37.3589 51.7874 37.3817 51.8174 37.4046 51.8476C37.5168 51.9955 37.6319 52.1472 37.5299 52.3471C37.2504 52.893 35.445 53.3051 34.5458 53.1348C34.391 53.1031 34.2642 53.0535 34.1782 52.9837C33.1374 52.1422 31.8816 51.8637 30.7448 52.1335C30.0405 52.2979 29.3809 52.6707 28.8463 53.2474C27.4885 54.7143 27.4962 57.0583 28.8616 58.533C29.5966 59.3258 30.5613 59.7377 31.5541 59.7451C32.452 59.7557 33.3739 59.4352 34.1705 58.766C34.453 58.5295 34.6736 58.39 34.9384 58.3911C35.0874 58.3942 35.2499 58.4415 35.4434 58.5408C37.4686 59.5808 39.5244 60.5743 41.5803 61.5601C42.1249 61.8239 42.3243 62.1189 42.3474 62.8019C42.424 65.0709 44.018 66.5914 46.0963 66.6083C46.3123 66.6109 46.5335 66.5972 46.7587 66.5664C48.9833 66.2637 50.3565 64.1526 49.8195 61.7387C49.6968 61.1721 49.7044 60.8384 50.1647 60.4425C53.1104 57.8967 56.0407 55.3199 58.9557 52.7353C59.2022 52.516 59.4063 52.4182 59.6319 52.4181C59.8091 52.4216 60.0004 52.4845 60.2363 52.5954C60.8193 52.8722 61.4099 53.0068 61.9799 53.0105C63.1281 53.0234 64.1938 52.5073 64.9392 51.5555C66.0285 50.1662 66.0515 48.2103 64.9929 46.8132C64.2567 45.8392 63.2097 45.3091 62.0673 45.3003C61.5025 45.2936 60.9142 45.4144 60.3284 45.6721C60.145 45.7531 59.9817 45.8182 59.8261 45.8516C59.5256 45.9121 59.2525 45.8544 58.9174 45.5558C56.0791 43.0178 53.2024 40.5263 50.3258 38.0348C49.8962 37.6623 49.7121 37.3208 49.9115 36.7387C50.4715 35.0544 50.0036 33.6263 48.6765 32.5319C47.9688 31.9489 47.194 31.6483 46.3903 31.6396C45.8314 31.6315 45.2573 31.7647 44.6794 32.0427C43.1912 32.7646 42.3857 34.022 42.4701 35.7062C42.5085 36.4824 42.1633 36.7463 41.5803 37.0179C39.7622 37.8562 37.9365 38.7022 36.1568 39.6258C35.8192 39.7999 35.5366 39.8961 35.2717 39.8963C34.9173 39.8904 34.5914 39.7114 34.2089 39.3155C33.3961 38.4737 32.324 38.1413 31.2648 38.2706C30.6292 38.3445 29.9977 38.5845 29.4293 38.9816C28.0101 39.9751 27.4578 41.8612 28.0945 43.5299C28.3307 44.1331 28.7009 44.6497 29.1681 45.0522Z" fill="white"/>
<path d="M54.0304 48.5276C53.4857 48.5276 52.9334 48.5044 52.3888 48.5354C51.0233 48.613 49.9724 48.6208 49.1823 46.952C48.2157 44.8952 45.3928 44.7089 43.6361 46.2923C43.0607 46.8123 42.6695 46.8977 41.9868 46.5562C40.069 45.6015 38.1052 44.74 36.1645 43.8241C35.8269 43.6611 35.2056 43.6301 35.3897 43.079C35.5815 42.4814 35.1672 41.6819 36.0494 41.2783C38.251 40.2771 40.4296 39.2293 42.5851 38.1426C43.1375 37.8632 43.3983 38.1271 43.7665 38.4376C45.0936 39.5475 46.5664 39.7571 48.0853 38.9266C48.6606 38.6083 48.9751 38.7791 49.3894 39.1439C52.243 41.6586 55.1043 44.1656 57.9886 46.6493C58.4336 47.0297 58.541 47.3401 58.3569 47.9222C58.1651 48.5354 57.7892 48.5354 57.3213 48.5276C56.2243 48.5199 55.1273 48.5276 54.0304 48.5276Z" fill="white"/>
<path d="M58.4734 50.9733C58.5348 51.2915 58.228 51.4313 57.9902 51.6408C55.0905 54.1789 52.1908 56.7091 49.3142 59.2627C48.8769 59.6508 48.5624 59.7594 48.0178 59.4102C47.2813 58.9212 46.3992 58.6961 45.5323 58.9755C44.7346 59.2317 44.2896 58.9678 43.8447 58.308C42.7631 56.7169 41.6278 55.1491 40.4694 53.6045C40.0399 53.0379 40.1242 52.7585 40.7609 52.5256C41.2289 52.3549 41.6891 52.1376 42.1264 51.9047C42.694 51.5943 43.1006 51.5942 43.6759 52.0755C45.7471 53.783 48.409 53.1621 49.598 50.7172C49.8972 50.104 50.2347 49.9566 50.8407 49.9643C52.981 49.9954 55.1289 49.9954 57.2768 49.9643C57.9825 49.9488 58.4964 50.0652 58.4734 50.9733Z" fill="white"/>
<path d="M35.553 55.925C35.1004 54.5512 36.3892 54.7065 37.0105 54.2641C38.1458 53.4413 38.9206 53.6276 39.68 54.916C40.6082 56.4994 41.8049 57.912 42.8559 59.4255C43.04 59.6894 43.4926 59.9533 43.109 60.3647C42.8175 60.6751 42.526 60.3957 42.2499 60.256C40.2017 59.2548 38.1612 58.2302 36.09 57.2678C35.4303 56.9573 35.3459 56.5382 35.553 55.925Z" fill="white"/>
<path d="M34.6309 44.7638C37.055 45.8814 39.4867 46.9836 41.8954 48.14C42.5782 48.466 42.5705 49.9873 41.9415 50.3909C41.9031 50.4142 41.8571 50.4297 41.8187 50.453C39.2489 51.8889 39.2489 51.8889 37.5076 49.4673C36.449 48.0003 35.4057 46.5256 34.3548 45.0509C34.4468 44.95 34.5389 44.8569 34.6309 44.7638Z" fill="white"/>
</svg>
