<svg width="150" height="76" viewBox="0 0 150 76" fill="none" xmlns="http://www.w3.org/2000/svg">
<g clip-path="url(#clip0_7_96)">
<path d="M38.063 38.2769L20.3069 46.4065L18.4838 47.242L0.126328 55.6501V76H20.3132V47.242H38.0694V76H58.25V29.0349L38.063 38.2769Z" fill="white"/>
<path d="M38.063 0V27.0615H20.3069V0H0.123161V45.2607L20.3101 36.0171L38.0662 27.8876L39.8893 27.052L58.2468 18.6439V0H38.063Z" fill="white"/>
<path d="M87.3307 0H67.1438V14.5768L87.3307 5.33317V0Z" fill="white"/>
<path d="M67.1438 76H87.3307V15.7194L67.1438 24.9614V76Z" fill="white"/>
<path d="M132.865 0H120.634L112.68 3.63985L96.2214 11.1743V20.1584H112.68V76H132.867V20.1584H149.325V0H132.865Z" fill="white"/>
</g>
<defs>
<clipPath id="clip0_7_96">
<rect width="149.2" height="76" fill="white" transform="translate(0.119995)"/>
</clipPath>
</defs>
</svg>
