<svg width="164" height="76" viewBox="0 0 164 76" fill="none" xmlns="http://www.w3.org/2000/svg">
<path d="M79.7458 61.9117C79.6726 61.3512 79.8433 60.7664 80.2823 60.4252C80.4286 60.3034 80.5993 60.2303 80.7944 60.279C81.1114 60.3765 81.4772 60.4496 81.8674 60.474C82.7697 60.5714 84.3061 60.3034 85.9888 59.5724C87.6715 58.8413 89.9151 57.2818 91.6465 55.4054C97.7432 49.1429 99.7185 43.3677 98.7918 38.9327C98.3285 36.7396 96.719 34.9851 94.6217 34.2054L94.5973 34.181C93.378 33.7424 92.183 33.5962 90.9637 33.7667C88.2811 34.181 85.1353 36.2523 81.526 39.9562C79.8189 41.7107 78.2338 43.8063 76.7706 46.2187L76.7462 46.1456C74.8684 49.2647 72.7468 52.6762 69.5034 56.8188C66.2599 60.9613 64.5285 63.0326 62.9921 64.0561C61.6996 64.8602 59.7974 64.8846 60.8217 61.2294C61.7728 57.5011 61.6752 56.5995 65.2357 47.7783C68.7961 38.9571 72.0152 31.1106 74.8928 24.2633C77.7705 17.3915 79.063 14.4674 79.1605 13.3708C79.2337 12.5423 78.7947 11.3483 78.2826 10.5198C77.7705 9.69126 77.2096 9.00896 76.5999 8.5216C75.9902 8.03424 75.3074 7.57125 74.5514 7.15699C73.7954 6.74274 73.7954 6.71837 73.4784 6.6209C72.7712 6.37722 72.0152 6.694 71.6738 7.37631C71.2836 8.20481 70.6739 9.47195 69.8935 11.1777C68.4303 14.3455 66.772 17.952 64.9187 22.0214C63.0653 26.0909 61.1631 30.4283 59.1634 35.0095C57.1881 39.615 55.4322 44.0256 53.9202 48.2169C52.4083 52.4326 51.4572 55.6735 51.067 57.9641C50.0427 64.0561 49.6526 67.4919 52.0425 70.4648C53.8471 72.6823 57.3832 74.3637 61.0412 72.9747C62.6751 72.3899 63.8212 71.269 65.6259 69.1246C67.4305 66.9802 69.1376 64.6165 70.7471 62.0335C70.8446 61.8629 70.9422 61.7167 71.0397 61.5705C70.9178 62.6914 70.9178 63.7149 71.0153 64.6409C71.2592 67.0777 72.1615 68.954 73.7223 70.2942C75.283 71.6345 77.0632 72.5361 79.0873 72.9991C81.1114 73.4864 83.2819 73.7545 85.5742 73.2915C89.1103 72.5848 90.6954 71.6101 93.378 69.8312C94.6217 69.0027 96.1093 67.7843 97.9139 66.1517C98.7187 65.4207 101.011 62.7402 103.474 59.6698C103.084 61.4974 102.913 63.788 102.986 65.4694C103.06 66.8584 103.108 67.9549 104.011 69.7338C104.669 71.0009 105.718 72.1706 107.254 72.7554C108.79 73.3646 111.57 73.5352 113.156 72.8041C115.18 71.8781 117.301 69.3195 119.813 65.9568C120.642 64.8602 121.447 63.7393 122.203 62.6183C121.935 65.1039 122.13 67.102 122.837 68.6372C123.422 70.0262 124.349 71.1471 125.642 72C126.91 72.8529 128.349 73.3159 129.958 73.3646C131.568 73.4133 133.226 73.1209 134.957 72.5361C136.689 71.9513 138.372 70.8547 140.03 69.2951C141.688 67.7356 143.127 65.7618 144.346 63.4225V63.9829C144.419 64.4216 144.517 64.982 144.663 65.6887C144.81 66.371 144.956 67.0046 145.175 67.565C145.761 69.0027 146.59 70.2211 147.419 71.074C148.102 71.7807 148.955 72.3168 149.882 72.6579C150.614 72.926 151.37 73.0478 152.248 73.0478C153.491 73.0234 154.54 72.8772 155.272 72.4386C155.662 72.1949 156.052 71.8538 156.491 71.4883C157.832 70.343 159.466 68.5641 163.124 64.1292C164.27 62.7402 160.466 63.2032 158.564 63.52C157.905 63.6174 157.32 63.9098 156.832 64.3728C154.442 66.5903 153.272 67.4919 152.808 67.0777C152.248 66.5659 152.54 64.9577 153.345 62.5209C153.76 61.2781 154.223 60.279 154.906 58.9632C157.125 54.5769 159.929 48.8505 162.929 41.5645C163.051 41.2721 163.075 40.9553 163.002 40.6385C162.88 40.273 162.636 39.8587 162.319 39.4201C162.002 38.9815 161.588 38.5429 161.124 38.1042C160.637 37.6656 159.954 37.3488 159.027 37.1539C158.588 37.0564 158.125 37.0077 157.637 37.0077C156.662 37.0077 155.759 37.5925 155.369 38.4941L153.76 42.1249C153.125 41.4426 152.467 40.8091 151.784 40.2242C151.101 39.6394 150.248 39.0302 149.199 38.421C148.151 37.8118 147.078 37.3245 145.956 36.9589C144.834 36.5934 143.59 36.4228 142.2 36.4472C140.81 36.4716 139.396 36.764 137.957 37.3732C135.323 38.3723 132.738 40.4679 130.446 43.4164L129.787 44.2937C129.47 44.7567 129.251 45.0247 129.007 45.3902C127.885 47.0229 126.91 48.7043 126.056 50.41C124.52 52.7493 122.618 55.3567 120.325 58.2078C117.155 62.1797 116.936 63.3981 113.985 65.1282C112.985 65.7131 111.083 64.982 111.595 62.5452L112.692 58.5245C112.863 57.9397 113.156 56.9894 113.375 56.4045C114.79 52.7006 117.692 45.5121 120.813 37.9093C121.496 37.8849 122.179 37.8849 122.862 37.8606C125.788 37.7874 128.568 37.6169 131.177 37.3732C133.787 37.1295 135.738 36.8371 137.055 36.4716C138.859 35.9111 138.469 33.3769 138.03 31.8661C137.835 31.2081 137.225 30.7695 136.543 30.7939C133.592 30.9644 131.324 31.2325 128.129 31.4518C126.471 31.5493 124.886 31.6467 123.349 31.7198C124.447 29.0881 125.52 26.5295 126.52 24.1414C127.568 21.6072 128.007 20.7056 128.056 19.9258C128.08 19.3166 127.861 18.7317 127.593 18.1469C127.324 17.5621 127.032 17.0747 126.69 16.7092C126.373 16.3193 125.983 15.9538 125.52 15.5883C125.056 15.2228 124.642 14.9304 124.252 14.7598C123.861 14.5892 123.764 14.5405 123.374 14.3455C122.983 14.175 123.032 14.175 122.886 14.1262C122.398 13.9069 121.837 14.1262 121.618 14.5892C121.471 14.906 121.301 15.2959 121.081 15.7589C120.594 16.8554 119.862 18.415 118.911 20.4619C117.96 22.4844 117.057 24.4826 116.18 26.4076C115.399 28.2352 114.57 30.1603 113.741 32.1341C113.57 32.1341 113.375 32.1585 113.204 32.1585C108.839 32.329 106.815 32.329 106.352 32.5727C105.815 32.8651 105.376 33.255 105.059 33.7424C104.742 34.2297 104.523 34.6927 104.425 35.1313C104.303 35.57 104.23 36.0573 104.206 36.5691C104.181 37.0808 104.157 36.9833 104.181 37.1539C104.23 37.6412 104.645 38.0311 105.132 38.0311C105.669 38.0311 106.449 38.0311 107.474 38.0311C108.644 38.0311 109.912 38.0311 111.278 38.0311C109.449 42.5148 107.693 46.901 106.352 50.5319C105.303 51.8965 105.035 52.262 104.401 53.0174C103.913 53.5779 103.23 54.4307 102.718 55.0156C101.474 56.4045 100.328 57.7448 100.036 58.0372C98.9382 59.1581 98.4748 59.6211 97.6944 60.3034C96.914 60.9613 95.8898 61.936 94.7924 62.7646C93.6706 63.6662 91.9392 64.8846 89.3785 65.4207C87.2081 65.8836 85.9644 65.6156 84.4037 65.3719C83.6233 65.2501 82.8429 65.0308 82.1113 64.6896C81.1846 64.1779 79.9409 63.3006 79.7458 61.9117ZM81.0139 53.3829C81.965 50.3857 83.3063 47.559 85.0377 44.8785C86.9643 41.8813 88.6957 40.1999 90.2321 39.81C92.1099 39.347 93.2317 39.81 93.5731 41.2477C93.6706 41.5888 93.6706 41.93 93.6462 42.2711C93.5975 42.7829 93.5243 43.2459 93.378 43.9525C93.1829 44.8541 92.5488 46.4868 91.5734 48.2657C90.5979 50.0445 89.3054 51.5066 87.6715 52.6519C85.306 54.4307 83.5013 55.2592 82.2088 55.2105C81.3065 55.1618 80.7456 54.2358 81.0139 53.3829ZM150.126 44.6348C150.053 45.3902 149.785 46.1213 149.394 46.7792L146.882 51.0923C144.907 54.5282 142.542 57.9641 139.786 61.4C137.03 64.8358 136.152 65.8105 134.64 65.9568C132.446 66.1273 131.519 63.9586 134.421 57.7935C137.323 51.6284 139.81 47.2422 141.834 44.6348L142.298 44.1475C143.907 42.6123 145.712 41.8813 147.663 41.9787C149.467 42.0762 150.272 42.9534 150.126 44.6348Z" fill="white"/>
<path d="M58.2362 17.4646C63.2111 11.9575 63.0648 9.91056 62.0162 7.44941C61.3821 6.45032 60.5042 4.23284 58.4801 4.96388C54.5538 7.57124 39.4341 23.2398 23.6315 36.0573C27.4846 27.8941 29.8013 23.4591 32.5814 17.7327C36.532 9.54505 37.6782 6.42595 37.3612 5.4756C37.288 5.25629 37.1905 4.57399 36.6052 3.64801C36.1906 2.99008 35.8248 2.45398 34.5079 1.50364C34.0934 1.21122 32.9228 0.480184 32.3619 0.212137C32.2888 0.187769 32.2156 0.163402 32.1424 0.139034L31.8742 0.041562C31.7766 -0.00717377 31.2889 -0.0559096 30.7524 0.163402C30.0696 0.431449 29.5087 2.38088 27.4846 6.23101C19.5101 21.461 5.24386 53.2123 2.48816 61.8386C0.000710902 69.7094 -0.804052 70.7328 2.12236 72.3168C3.70749 73.2184 6.34126 73.925 6.73145 73.1209C6.85338 72.8529 7.21919 72.0487 7.82885 70.7085C8.26782 69.7338 14.901 54.8206 18.5346 46.901C24.2655 54.1383 29.338 60.6202 33.752 66.3466C38.166 72.0731 40.0193 74.4855 40.8973 75.2165C41.7996 75.972 42.7994 75.9719 43.7505 75.9963C44.726 76.0207 45.5551 75.9232 46.2867 75.7283C47.0183 75.509 47.7256 75.2165 48.4572 74.851C49.1888 74.4855 49.2131 74.4855 49.4326 74.2906C49.9935 73.8763 50.1155 73.1209 49.7009 72.5361C49.1888 71.805 48.4084 70.6841 47.3354 69.1977C45.36 66.4441 43.1165 63.325 40.5802 59.816C38.044 56.3071 35.3127 52.6275 32.3619 48.753C31.167 47.1691 29.972 45.6339 28.8014 44.1475C44.8723 31.1594 48.5303 28.1865 58.2362 17.4646Z" fill="white"/>
</svg>
