<svg width="419" height="76" viewBox="0 0 419 76" fill="none" xmlns="http://www.w3.org/2000/svg">
<path d="M80.2934 8.41067C83.0293 8.41067 84.3973 9.27885 84.3973 11.0152C84.3973 11.4808 84.3644 11.8149 84.296 12.0176C84.1341 12.6184 83.8247 13.1691 83.3959 13.6197C82.8536 14.0539 82.2853 14.4545 81.6942 14.8193C80.6928 15.4218 79.8584 16.0874 79.1908 16.8241C78.5233 17.5581 77.9569 18.6919 77.4891 20.2283L65.0735 64.6863C63.9409 68.6903 62.5045 71.4948 60.77 73.0969C59.1011 74.6991 56.7646 75.4988 53.7633 75.4988C51.0931 75.4988 48.8551 74.732 47.0549 73.1983C45.3176 71.5961 43.6842 69.1586 42.1494 65.8858L27.0308 34.048L18.6206 63.284C18.4347 64.0372 18.3337 64.8089 18.3196 65.5846C18.3196 66.4555 18.4564 67.1895 18.7218 67.7893C19.0556 68.3233 19.4879 68.8902 20.0241 69.4928C20.7573 70.3609 21.1239 71.0949 21.1239 71.6947C21.1239 72.0946 21.0911 72.3958 21.0254 72.5985C20.9014 73.0498 20.6734 73.4657 20.3598 73.8129C20.0463 74.16 19.6558 74.4289 19.2197 74.5978C18.2895 74.9319 16.886 75.099 15.0174 75.099H4.10386C1.36795 75.099 0 74.2308 0 72.4972C0 72.0288 0.0328309 71.6947 0.101229 71.4948C0.30095 70.8265 0.6019 70.3253 1.00134 69.9939C1.52091 69.5004 2.09135 69.0634 2.70308 68.6903C3.70442 68.0878 4.53613 67.4223 5.20643 66.691C5.87399 65.9516 6.44032 64.8205 6.90817 63.284L19.6219 18.3249L18.0214 15.0192C17.3539 13.6855 17.0201 12.516 17.0201 11.5137C17.0201 9.44591 18.3552 8.41067 21.0254 8.41067H35.8404C37.9771 8.41067 39.5776 8.91186 40.6474 9.91423C41.7828 10.8481 42.9838 12.5516 44.2506 15.0192L58.8685 44.3594L65.7767 20.2283C65.9764 19.2917 66.0776 18.5248 66.0776 17.925C66.0776 17.0569 65.908 16.3557 65.5742 15.8217C65.2689 15.1627 64.8638 14.5548 64.3732 14.0196C63.6399 13.1514 63.2733 12.4174 63.2733 11.8149C63.2733 11.4151 63.3061 11.1165 63.3718 10.9139C63.4883 10.4704 63.7149 10.0635 64.0306 9.73121C64.3463 9.3989 64.7409 9.1519 65.1775 9.01319C66.1077 8.61333 67.5112 8.41067 69.3799 8.41067H80.2934ZM110.782 22.129C118.459 22.129 124.599 23.5641 129.206 26.4343C133.81 29.2388 136.114 33.5441 136.114 39.3529C136.114 41.5549 135.712 44.0581 134.91 46.8626L130.806 60.6795C130.741 60.9479 130.708 61.282 130.708 61.6819C130.708 62.75 131.14 63.284 132.008 63.284C132.397 63.2868 132.781 63.1975 133.129 63.0233C133.477 62.8491 133.779 62.595 134.01 62.2817C134.612 61.5477 135.012 61.1807 135.214 61.1807C135.545 61.1807 135.813 61.4135 136.013 61.8818C136.281 62.3474 136.412 62.8842 136.412 63.484C136.481 65.2861 135.78 67.1237 134.311 68.9916C132.91 70.8594 131.006 72.3958 128.604 73.5981C126.202 74.8004 123.564 75.4002 120.697 75.4002C117.223 75.4002 114.254 74.7648 111.784 73.4968C109.316 72.2288 107.614 70.3609 106.678 67.8906C104.736 70.2459 102.313 72.1575 99.5706 73.4968C96.8347 74.7648 93.8963 75.4002 90.761 75.4002C87.2234 75.4002 84.2523 74.732 81.8501 73.3982C79.448 71.996 77.645 70.2267 76.444 68.0905C75.3267 65.9589 74.7428 63.5879 74.7422 61.1807C74.7422 60.1126 74.8435 59.0773 75.0432 58.0777C76.1102 53.4711 78.4138 49.9984 81.9514 47.6623C85.5545 45.3261 89.8253 44.1567 94.7663 44.1567C100.304 44.1567 105.746 45.0276 111.083 46.7612L113.587 40.1526C114.454 37.3509 114.889 35.1791 114.889 33.6454C114.821 32.0432 114.287 30.8409 113.286 30.0412C112.284 29.2388 110.75 28.8362 108.681 28.8362C109.081 29.9043 109.283 31.008 109.283 32.1418C109.283 34.6122 108.347 36.7484 106.479 38.5505C104.61 40.3526 101.94 41.2564 98.4708 41.2564C95.1986 41.2564 92.6296 40.5552 90.761 39.153C88.958 37.6823 88.0579 35.8802 88.0579 33.744C88.0579 30.4082 89.9265 27.6366 93.6665 25.4347C97.401 23.23 103.105 22.129 110.782 22.129ZM105.176 52.4688C103.308 52.4688 101.773 53.2027 100.572 54.6734C99.4365 56.0757 98.8702 57.6094 98.8702 59.2773C98.8702 60.3454 99.1028 61.2135 99.5706 61.8818C100.104 62.5501 100.84 62.8842 101.773 62.8842C102.64 62.8842 103.576 62.5501 104.577 61.8818C105.644 61.1478 106.41 60.0797 106.878 58.6775L108.982 52.77C107.726 52.5596 106.45 52.4588 105.176 52.4688ZM189.705 22.129C193.442 22.129 196.411 23.2656 198.613 25.5333C200.884 27.8064 202.019 30.6081 202.019 33.9467C202.019 35.2147 201.883 36.3841 201.617 37.4523C200.95 40.1855 199.683 42.2889 197.814 43.7596C195.946 45.2275 193.71 45.9615 191.106 45.9615C188.57 45.9615 186.633 45.359 185.297 44.1594C184.031 42.9571 182.895 41.355 181.894 39.3529C181.361 38.2164 180.86 37.381 180.395 36.8497C179.927 36.3157 179.393 36.0473 178.792 36.0473C178.124 36.0473 177.525 36.3157 176.989 36.8497C176.523 37.3838 176.088 38.3177 175.689 39.6515L167.979 64.6835C167.845 65.0204 167.779 65.5188 167.779 66.1898C167.779 67.0553 168.012 67.7893 168.48 68.3918C169.013 68.9258 169.714 69.4599 170.581 69.9939C171.383 70.528 171.916 70.9607 172.184 71.2948C172.45 71.629 172.551 72.0617 172.485 72.5957C172.348 73.4639 171.851 74.0993 170.98 74.4992C170.182 74.899 168.781 75.1017 166.778 75.1017H141.145C139.411 75.1017 138.174 74.8333 137.441 74.2992C136.639 73.6967 136.341 72.9299 136.538 71.996C136.806 71.1935 137.509 70.4924 138.645 69.8926C139.643 69.3586 140.478 68.7259 141.145 67.9892C141.813 67.2552 142.379 66.0885 142.847 64.4836L151.758 35.5461C151.892 35.2147 151.958 34.7464 151.958 34.1466C151.958 33.4099 151.794 32.843 151.457 32.4431C151.192 32.0432 150.724 31.5421 150.056 30.9423C149.389 30.4082 148.921 29.9399 148.655 29.54C148.387 29.1402 148.355 28.6061 148.554 27.9379C148.954 26.4042 151.058 25.0677 154.861 23.9311C158.716 22.7217 162.735 22.1139 166.775 22.129C169.511 22.129 171.782 22.7644 173.582 24.0324C175.385 25.2347 176.554 26.9684 177.084 29.2388C180.291 24.5008 184.499 22.129 189.705 22.129ZM234.867 21.6278C238.938 21.6278 242.508 22.2303 245.578 23.4326C248.647 24.5665 251.019 26.1686 252.686 28.2391C254.423 30.2384 255.29 32.476 255.29 34.949C255.29 37.6166 254.355 39.8185 252.486 41.5549C250.683 43.2912 248.215 44.1567 245.077 44.1567C241.876 44.1567 239.373 43.357 237.57 41.7548C235.767 40.0842 234.867 37.8494 234.867 35.0449C234.867 33.7111 235.066 32.3089 235.469 30.8409C232.664 31.5749 230.161 33.0456 227.958 35.2476C225.824 37.3838 224.388 40.2211 223.652 43.7596C223.253 45.7588 223.05 47.5637 223.05 49.1658C223.05 52.77 224.054 55.506 226.057 57.3766C228.057 59.2444 230.927 60.181 234.667 60.181C236.801 60.181 238.637 59.9784 240.172 59.5785C241.706 59.1129 243.277 58.5104 244.877 57.7764C246.212 57.1082 247.181 56.7768 247.78 56.7768C248.182 56.7768 248.448 56.8754 248.582 57.0781C248.716 57.2095 248.781 57.5436 248.781 58.0777C248.85 60.548 247.816 63.1498 245.679 65.8886C243.611 68.5588 240.705 70.8265 236.968 72.6971C233.296 74.4992 229.16 75.4002 224.555 75.4002C219.748 75.4002 215.477 74.532 211.74 72.7984C208.068 70.9936 205.201 68.4575 203.13 65.1847C201.127 61.8489 200.126 57.9764 200.126 53.5725C200.126 51.502 200.394 49.1987 200.928 46.6626C202.728 38.3834 206.7 32.1418 212.84 27.9379C219.05 23.7312 226.394 21.6278 234.867 21.6278ZM314.156 61.282C314.022 61.5477 313.956 61.9503 313.956 62.4843C313.956 62.9499 314.057 63.3169 314.257 63.5853C314.388 63.717 314.544 63.8205 314.716 63.8893C314.889 63.9581 315.073 63.9907 315.259 63.9852C315.648 63.9875 316.032 63.898 316.38 63.7238C316.728 63.5496 317.03 63.2958 317.261 62.9828C317.86 62.2488 318.263 61.8818 318.462 61.8818C318.796 61.8818 319.061 62.1146 319.261 62.5829C319.464 62.9828 319.562 63.4867 319.562 64.0837C319.631 66.02 318.996 67.9235 317.661 69.794C316.326 71.5961 314.356 73.0969 311.754 74.2992C309.218 75.4331 306.148 76 302.542 76C298.137 76 294.635 75.0004 292.031 72.9956C289.429 70.9279 288.094 68.1891 288.025 64.7849C288.025 62.3173 288.627 59.5457 289.828 56.4755L295.336 42.0561C295.669 41.1879 295.836 40.4868 295.836 39.9527C295.836 39.0845 295.535 38.419 294.934 37.9507C294.672 37.6871 294.36 37.48 294.015 37.342C293.671 37.204 293.302 37.138 292.931 37.1483C291.664 37.1483 290.362 37.7508 289.027 38.9531C287.76 40.0869 286.726 41.9547 285.924 44.5593V44.3594L279.618 64.6863C279.432 65.3725 279.331 66.0788 279.317 66.7896C279.317 67.6578 279.484 68.3562 279.818 68.8902C280.151 69.3586 280.619 69.8269 281.218 70.2925C281.686 70.7581 282.02 71.1606 282.22 71.4948C282.419 71.7632 282.452 72.1302 282.321 72.5957C281.987 73.4639 281.32 74.0993 280.318 74.4992C279.317 74.899 277.782 75.1017 275.711 75.1017H252.885C251.151 75.1017 249.884 74.8333 249.082 74.2992C248.281 73.6967 248.015 72.9299 248.281 71.996C248.549 71.1935 249.249 70.4924 250.382 69.8926C251.383 69.3586 252.218 68.7259 252.885 67.9892C253.553 67.2552 254.122 66.0885 254.587 64.4836L269.807 14.5208C270.007 13.9183 270.108 13.4171 270.108 13.0172C270.108 12.2832 269.905 11.6835 269.506 11.2151C269.108 10.6828 268.635 10.2106 268.102 9.8129C267.558 9.39486 267.055 8.92528 266.6 8.41067C266.335 8.01081 266.299 7.4795 266.502 6.8085C266.901 5.27481 269.005 3.93831 272.808 2.80447C276.676 1.66001 280.69 1.08614 284.723 1.10097C288.594 1.10097 291.432 1.83769 293.232 3.30566C295.1 4.77362 296.036 6.77564 296.036 9.31171C296.036 10.7824 295.801 12.2148 295.336 13.6197L289.93 31.2408C292.531 27.8365 295.267 25.4675 298.137 24.1338C301.127 22.7868 304.372 22.1029 307.65 22.129C311.721 22.129 314.99 23.3642 317.461 25.8345C319.997 28.3049 321.264 31.5092 321.264 35.4475C321.264 37.5152 320.93 39.5529 320.263 41.5549L314.156 61.282ZM350.193 22.129C354.065 22.129 356.902 22.863 358.705 24.3337C360.505 25.8017 361.408 27.8037 361.408 30.3397C361.413 31.8368 361.177 33.3249 360.707 34.7464L351.496 64.6863C351.296 65.486 351.195 66.1871 351.195 66.7896C351.195 67.6578 351.362 68.3562 351.695 68.8902C352.029 69.3586 352.497 69.8269 353.096 70.2925C353.564 70.7581 353.898 71.1606 354.097 71.4948C354.3 71.7632 354.333 72.1302 354.199 72.5957C353.865 73.4639 353.197 74.0993 352.196 74.4992C351.195 74.899 349.66 75.1017 347.591 75.1017H324.766C323.029 75.1017 321.762 74.8333 320.96 74.2992C320.159 73.6967 319.893 72.9299 320.159 71.996C320.427 71.1935 321.127 70.4924 322.262 69.8926C323.264 69.3586 324.098 68.7259 324.766 67.9892C325.433 67.2552 326 66.0885 326.468 64.4836L335.176 35.5461C335.376 34.9463 335.477 34.4451 335.477 34.0453C335.477 33.3113 335.31 32.7444 334.976 32.3445C334.557 31.7964 334.05 31.3224 333.474 30.9423C332.807 30.4082 332.342 29.9399 332.073 29.54C331.805 29.1402 331.772 28.6061 331.972 27.9379C332.374 26.4042 334.476 25.0677 338.281 23.9311C342.136 22.7219 346.154 22.114 350.193 22.129ZM356.902 0C359.504 0 361.673 0.86818 363.411 2.6018C365.145 4.27243 366.012 6.34292 366.012 8.81326C366.012 10.5469 365.545 12.2504 364.612 13.9183C363.731 15.6025 362.417 17.0207 360.806 18.0264C359.184 19.0332 357.308 19.554 355.4 19.5272C352.864 19.5272 350.727 18.6919 348.992 17.024C347.323 15.2876 346.456 13.1514 346.39 10.6154C346.39 8.94472 346.823 7.30969 347.69 5.70753C348.554 4.04471 349.829 2.6313 351.394 1.60216C352.998 0.534054 354.833 0 356.902 0ZM394.466 21.6278C402.942 21.6278 409.084 22.9972 412.887 25.7359C416.692 28.4035 418.594 31.8433 418.594 36.0473C418.594 37.3153 418.46 38.4848 418.194 39.5529C417.193 43.9595 414.389 47.1282 409.784 49.0645C405.245 50.9351 399.872 51.869 393.664 51.869C390.717 51.8816 387.773 51.6802 384.855 51.2665C384.789 54.7392 385.722 57.1766 387.659 58.5789C389.593 59.9784 392.296 60.6795 395.768 60.6795C397.369 60.6795 398.903 60.5152 400.373 60.181C401.842 59.7784 403.71 59.2115 405.979 58.4775C407.847 57.8093 409.117 57.4752 409.784 57.4752C410.517 57.4752 410.884 57.9106 410.884 58.7788C410.952 61.115 410.085 63.5853 408.282 66.1871C406.479 68.7259 403.809 70.895 400.271 72.6971C396.737 74.4992 392.463 75.4002 387.459 75.4002C380.05 75.4002 373.977 73.5297 369.238 69.794C364.499 66.0529 362.13 60.6138 362.13 53.4711C362.13 51.4691 362.396 49.133 362.929 46.46C364.598 38.252 368.237 32.0761 373.843 27.9379C379.517 23.7312 386.389 21.6278 394.466 21.6278ZM385.555 45.2604C385.823 45.3261 386.19 45.3617 386.657 45.3617C389.459 45.3617 391.596 44.0581 393.065 41.4563C394.531 38.8517 395.235 35.9487 395.166 32.7444C395.101 30.8738 394.567 29.9399 393.566 29.9399C392.83 29.9399 391.962 30.5424 390.961 31.742C389.96 32.8786 388.958 34.6122 387.96 36.9483C387.024 39.2872 386.222 42.0561 385.555 45.2604Z" fill="white"/>
</svg>
