<svg width="400" height="76" viewBox="0 0 400 76" fill="none" xmlns="http://www.w3.org/2000/svg">
<path d="M3.46368 34.7427C1.66469 34.7427 0.206543 33.2652 0.206543 31.4422V25.0147C0.206543 23.1917 1.66469 21.7142 3.46368 21.7142C5.26267 21.7142 6.72082 23.1917 6.72082 25.0147V31.4422C6.72082 33.2652 5.26267 34.7427 3.46368 34.7427Z" fill="white"/>
<path d="M17.5778 58.6283C15.1793 58.6283 13.2353 56.9721 13.2353 54.9286V5.87217C13.2353 3.82808 15.1793 2.17129 17.5778 2.17129C19.977 2.17129 21.921 3.82808 21.921 5.87217V54.9286C21.921 56.9721 19.977 58.6283 17.5778 58.6283Z" fill="white"/>
<path d="M31.6924 69.4855C29.8934 69.4855 28.4352 67.8686 28.4352 65.8731V5.78312C28.4352 3.78816 29.8934 2.17132 31.6924 2.17132C33.4914 2.17132 34.9495 3.78816 34.9495 5.78312V65.8731C34.9495 67.8686 33.4914 69.4855 31.6924 69.4855Z" fill="white"/>
<path d="M57.7494 69.4855C55.9501 69.4855 54.492 67.8682 54.492 65.8734V5.78284C54.492 3.78804 55.9501 2.17132 57.7494 2.17132C59.5483 2.17132 61.0063 3.78804 61.0063 5.78284V65.8734C61.0063 67.8682 59.5483 69.4855 57.7494 69.4855Z" fill="white"/>
<path d="M45.8058 75.9998C43.4074 75.9998 41.4633 74.3622 41.4633 72.3409V12.3446C41.4633 10.3234 43.4074 8.68569 45.8058 8.68569C48.205 8.68569 50.149 10.3234 50.149 12.3446V72.3409C50.149 74.3622 48.205 75.9998 45.8058 75.9998Z" fill="white"/>
<path d="M71.8636 58.6283C69.465 58.6283 67.5208 56.9723 67.5208 54.929V5.87125C67.5208 3.82793 69.465 2.17129 71.8636 2.17129C74.2623 2.17129 76.2065 3.82793 76.2065 5.87125V54.929C76.2065 56.9723 74.2623 58.6283 71.8636 58.6283Z" fill="white"/>
<path d="M85.9782 34.7427C84.1788 34.7427 82.7208 33.2663 82.7208 31.4454V25.0116C82.7208 23.19 84.1788 21.7142 85.9782 21.7142C87.777 21.7142 89.235 23.19 89.235 25.0116V31.4454C89.235 33.2663 87.777 34.7427 85.9782 34.7427Z" fill="white"/>
<path d="M113.044 59.5981C109.471 58.7968 106.6 57.7506 104.435 56.4573L109.064 46.3756C111.067 47.5652 113.45 48.5083 116.212 49.2065C118.973 49.9042 121.706 50.2527 124.414 50.2527C126.904 50.2527 128.678 50.0084 129.733 49.5164C130.79 49.025 131.318 48.3147 131.318 47.3837C131.318 46.4533 130.68 45.7937 129.409 45.406C128.137 45.0183 126.119 44.6438 123.359 44.2814C119.838 43.8684 116.848 43.3257 114.384 42.6534C111.92 41.9817 109.796 40.7413 108.009 38.9307C106.222 37.1211 105.329 34.588 105.329 31.3308C105.329 28.6433 106.168 26.2508 107.846 24.1572C109.524 22.0631 111.975 20.4091 115.196 19.1936C118.417 17.9797 122.275 17.3714 126.77 17.3714C129.963 17.3714 133.131 17.6813 136.271 18.3012C139.411 18.9228 142.038 19.8019 144.149 20.9392L139.521 30.9431C135.622 28.876 131.398 27.8408 126.851 27.8408C124.414 27.8408 122.628 28.1127 121.491 28.6548C120.354 29.1981 119.785 29.9096 119.785 30.7881C119.785 31.7704 120.407 32.4553 121.653 32.843C122.898 33.2302 124.955 33.6323 127.826 34.0454C131.452 34.5621 134.457 35.1566 136.84 35.829C139.223 36.5013 141.293 37.7289 143.053 39.5125C144.811 41.2955 145.692 43.7912 145.692 46.9966C145.692 49.6328 144.853 51.9983 143.175 54.0918C141.496 56.1853 139.019 57.8278 135.743 59.0163C132.467 60.2053 128.528 60.7999 123.927 60.7999C120.244 60.7999 116.618 60.3995 113.044 59.5981Z" fill="white"/>
<path d="M180.571 46.8435C182.25 45.033 183.089 42.5542 183.089 39.4062C183.089 36.2587 182.25 33.7788 180.571 31.9695C178.891 30.1589 176.74 29.254 174.117 29.254C171.493 29.254 169.342 30.1589 167.664 31.9695C165.984 33.7788 165.146 36.2587 165.146 39.4062C165.146 42.5542 165.984 45.033 167.664 46.8435C169.342 48.6534 171.493 49.5583 174.117 49.5583C176.74 49.5583 178.891 48.6534 180.571 46.8435ZM197.806 18.0793V75.9998H182.853V56.9553C179.967 59.9455 176.006 61.4409 170.97 61.4409C167.086 61.4409 163.558 60.536 160.384 58.7261C157.209 56.9156 154.691 54.3462 152.829 51.014C150.966 47.6829 150.035 43.8129 150.035 39.4062C150.035 34.9994 150.966 31.1311 152.829 27.7983C154.691 24.4679 157.209 21.8962 160.384 20.0857C163.558 18.2763 167.086 17.3714 170.97 17.3714C176.583 17.3714 180.78 19.0235 183.561 22.3288V18.0793H197.806Z" fill="white"/>
<path d="M249.92 17.3714V60.0908H236.178V55.5192C234.659 57.2535 232.837 58.5668 230.711 59.4602C228.586 60.3526 226.333 60.7999 223.955 60.7999C218.64 60.7999 214.4 59.1722 211.237 55.9133C208.073 52.6561 206.492 47.7695 206.492 41.2535V17.3714H220.917V38.8096C220.917 42.0152 221.499 44.3543 222.664 45.8251C223.827 47.2964 225.522 48.0312 227.75 48.0312C230.028 48.0312 231.888 47.2039 233.331 45.5487C234.773 43.8941 235.495 41.3594 235.495 37.9436V17.3714H249.92Z" fill="white"/>
<path d="M281.654 50.2527C282.996 49.4266 283.963 48.211 284.555 46.6083V42.9633H277.948C273.489 42.9633 271.26 44.3857 271.26 47.2288C271.26 48.5209 271.769 49.5545 272.791 50.3305C273.811 51.1059 275.208 51.4936 276.98 51.4936C278.753 51.4936 280.311 51.0805 281.654 50.2527ZM294.142 22.1403C297.956 25.3204 299.863 30.1942 299.863 36.7588V60.1022H285.602V54.6737C283.399 58.7588 279.102 60.7999 272.711 60.7999C269.326 60.7999 266.398 60.2307 263.928 59.0941C261.457 57.9574 259.59 56.4181 258.328 54.4795C257.065 52.5409 256.435 50.3305 256.435 47.8486C256.435 43.8684 258.019 40.7794 261.189 38.581C264.357 36.3849 269.246 35.2857 275.853 35.2857H284.555C284.285 30.8394 281.197 28.6162 275.289 28.6162C273.194 28.6162 271.071 28.9394 268.923 29.5852C266.775 30.2328 264.948 31.1245 263.444 32.2618L258.289 22.2567C260.705 20.7058 263.646 19.5041 267.11 18.6509C270.575 17.7977 274.052 17.3714 277.545 17.3714C284.796 17.3714 290.329 18.9614 294.142 22.1403Z" fill="white"/>
<path d="M336.914 46.3191C338.591 44.523 339.432 42.038 339.432 38.8635C339.432 35.7406 338.606 33.2944 336.952 31.5245C335.3 29.7557 333.161 28.8702 330.538 28.8702C327.914 28.8702 325.763 29.7557 324.085 31.5245C322.405 33.2944 321.566 35.7406 321.566 38.8635C321.566 42.038 322.405 44.523 324.085 46.3191C325.763 48.1145 327.914 49.0122 330.538 49.0122C333.108 49.0122 335.233 48.1145 336.914 46.3191ZM354.148 2.17142V60.0976H339.904V55.8821C337.122 59.161 332.951 60.7999 327.39 60.7999C323.507 60.7999 319.965 59.9021 316.765 58.1067C313.564 56.3106 311.032 53.7491 309.17 50.4168C307.307 47.0869 306.377 43.2356 306.377 38.8635C306.377 34.4914 307.307 30.654 309.17 27.3479C311.032 24.044 313.564 21.5068 316.765 19.7369C319.965 17.9675 323.507 17.0825 327.39 17.0825C332.479 17.0825 336.414 18.5405 339.195 21.454V2.17142H354.148Z" fill="white"/>
<path d="M373.691 4.34666C371.268 4.41852 369.129 5.02714 367.275 6.17187C365.422 7.31724 364.108 8.90906 363.338 10.948V28.2284H358.491V0.214802H363.007V6.70799C363.998 4.77657 365.302 3.21146 366.918 2.01267C368.533 0.814515 370.259 0.143575 372.095 -0.000152342H373.03C373.287 -0.000152342 373.508 0.01829 373.691 0.053904V4.34666Z" fill="white"/>
<path d="M385.674 24.7843C387.227 24.7843 388.672 24.4801 390.011 23.871C391.348 23.2632 392.364 22.4538 393.058 21.4453C393.685 20.7843 393.999 20.1066 393.999 19.4104V15.3931C391.885 14.5231 389.688 14.0872 387.409 14.0872C385.228 14.0872 383.452 14.5757 382.082 15.5489C380.71 16.5234 380.025 17.7922 380.025 19.3585C380.025 20.1233 380.164 20.8369 380.446 21.4972C380.726 22.1589 381.123 22.732 381.635 23.2187C382.147 23.7065 382.75 24.0893 383.444 24.3669C384.138 24.6458 384.881 24.7843 385.674 24.7843ZM384.534 28.2284C383.312 28.2284 382.172 28.0107 381.115 27.576C380.057 27.1413 379.141 26.5416 378.365 25.7761C377.587 25.0112 376.977 24.1152 376.531 23.0882C376.085 22.063 375.863 20.9408 375.863 19.7233C375.863 18.4712 376.126 17.3316 376.655 16.3058C377.183 15.2793 377.935 14.4007 378.909 13.6698C379.884 12.9402 381.04 12.3658 382.379 11.9484C383.717 11.531 385.179 11.3227 386.764 11.3227C388.019 11.3227 389.292 11.4445 390.58 11.6875C391.869 11.9311 393.008 12.2619 393.999 12.6793V10.4873C393.999 8.26132 393.404 6.51393 392.215 5.24327C391.025 3.97508 389.341 3.33944 387.161 3.33944C384.55 3.33944 381.809 4.4011 378.935 6.52197L377.498 3.54781C380.834 1.18271 384.188 -0.000153058 387.557 -0.000153058C390.959 -0.000153058 393.61 0.957018 395.511 2.86951C397.41 4.78261 398.361 7.47914 398.361 10.9572V22.0711C398.361 23.1494 398.823 23.7065 399.748 23.7412V27.7065C399.284 27.7757 398.905 27.8277 398.608 27.8629C398.311 27.8969 397.996 27.9149 397.667 27.9149C396.807 27.9149 396.122 27.6459 395.61 27.1067C395.097 26.5675 394.792 25.9152 394.693 25.1497L394.594 23.2187C393.437 24.8541 391.975 26.0976 390.209 26.9497C388.44 27.8023 386.549 28.2284 384.534 28.2284Z" fill="white"/>
</svg>
