<svg width="298" height="76" viewBox="0 0 298 76" fill="none" xmlns="http://www.w3.org/2000/svg">
<g clip-path="url(#clip0_4_40)">
<path d="M40.1072 74.1883L39.9623 74.0433C38.9133 72.9943 38.4208 71.5118 38.6336 70.0437V70.0437V70.0437C38.8467 68.5734 39.7329 67.2864 41.0305 66.5629L42.0384 66.0009V66.0009C43.9409 64.94 46.2629 64.9385 48.1639 66.0019V66.0019L49.4485 66.7205C50.5735 67.3498 51.3633 68.4434 51.6071 69.7091V69.7091V69.7091C51.8491 70.966 51.4863 72.2635 50.6275 73.2126L50.0482 73.8527V73.8527C48.8108 75.2199 47.0528 76 45.2088 76H45.0119H44.4811C42.8406 76 41.2672 75.3483 40.1072 74.1883V74.1883ZM25.2104 61.4237L24.5036 61.1944C20.3207 59.8374 16.5188 57.5088 13.4092 54.3992V54.3992L12.6374 53.6274C10.0466 51.0366 8.20614 47.7924 7.31148 44.2394V44.2394L7.06969 43.2792C6.32756 40.3319 6.20462 37.2628 6.70862 34.2656V34.2656C7.12894 31.7661 8.63748 27.0833 10.0609 23.8594V23.8594C11.7702 19.9883 14.2124 16.4845 17.2529 13.5413L18.5619 12.2741L20.0743 10.81C22.9863 7.99123 26.3607 5.69349 30.0505 4.01699V4.01699C33.1172 2.62361 37.7235 1.14976 40.2868 0.74178V0.74178C43.3611 0.252456 46.5032 0.398598 49.5188 1.17118L51.9588 1.79627L52.929 2.04482C56.9307 3.07001 60.7424 4.72964 64.2191 6.96064V6.96064C67.1059 8.81309 71.5495 12.5871 74.0937 15.3473L74.4979 15.7857C77.2955 18.8208 79.6065 22.2707 81.3488 26.0128L81.4167 26.1586L81.525 26.3911C83.2303 30.0538 84.1157 34.0445 84.1193 38.0847V38.0847L84.1205 39.4166C84.1234 42.5564 83.2586 45.636 81.6215 48.3152V48.3152C78.4927 53.436 74.8756 56.2859 66.6312 60.1261V60.1261C62.3643 62.1137 57.7301 63.1905 53.024 63.2879L46.2211 63.4288L39.0307 63.5777C34.5629 63.6702 30.1113 63.0134 25.8606 61.6346L25.2104 61.4237ZM63.2935 54.3152C67.4704 52.8411 72.1766 50.7907 73.7518 49.7586V49.7586C75.5174 48.6018 76.5106 46.5733 76.3417 44.4693L76.0451 40.7748L76.0038 40.2604C75.6564 35.9318 74.2477 31.7555 71.9025 28.1007V28.1007L71.0819 26.822C69.2549 23.9749 67.0741 21.371 64.5918 19.0728L61.5692 16.2744L58.7186 13.6352C56.1258 11.2348 53.1929 9.23011 50.0148 7.68605V7.68605L49.6791 7.52297C46.8124 6.1302 43.5271 5.8649 40.474 6.77963V6.77963V6.77963C37.3579 7.71324 34.5225 9.40622 32.2224 11.7065L28.3132 15.616L25.7815 18.148C22.5512 21.3786 19.9013 25.1412 17.9479 29.271V29.271L17.6527 29.8951C15.9033 33.5936 14.9959 37.6342 14.9959 41.7256V41.7256V43.2377C14.9959 46.1602 16.5091 48.8744 18.9952 50.4109V50.4109C21.1949 51.7704 25.8367 53.7916 29.3104 54.9025L29.7532 55.0441C33.6456 56.289 37.7057 56.93 41.7923 56.9448L45.6627 56.9589L48.7732 56.9702C53.3563 56.9868 57.9083 56.2157 62.2302 54.6904L63.2935 54.3152ZM103.906 55.1537C103.625 54.6591 102.26 48.9853 100.873 42.5453C99.4857 36.1053 97.695 27.8253 96.8937 24.1452L95.4368 17.4543L96.1983 16.6968C96.6172 16.2802 98.2851 15.6123 99.9049 15.2125L102.85 14.4857L103.68 15.8285C104.136 16.5671 105.338 22.1093 106.351 28.1446L108.192 39.1179L110.804 27.9844L113.417 16.8509L114.647 16.0903C119.71 12.9615 121.353 15.0678 123.977 28.0483L126.118 38.6423L128.312 26.9331L130.506 15.224L134.304 15.5368C136.393 15.7089 138.315 16.0617 138.574 16.3209C139.156 16.9027 131.209 51.3829 129.959 53.6969L129.056 55.3696H125.292H121.529L119.413 43.7379L117.297 32.1062L114.377 43.7379L111.457 55.3696L107.937 55.7112L104.418 56.0529L103.906 55.1537ZM144.833 54.9121C143.563 54.3648 141.672 52.6167 140.631 51.0275L138.738 48.138L138.072 43.2829L137.407 38.4278L139.719 33.2004L142.032 27.973L146.206 26.2288L150.38 24.4847L154.337 25.6753L158.293 26.8659L159.881 29.4086C160.754 30.8071 161.839 33.9586 162.293 36.412L163.117 40.8726L161.963 42.2665L160.808 43.6605H153.696H146.584V44.696C146.584 45.2655 147.419 46.5663 148.44 47.5867L150.295 49.442L153.179 48.8597C154.765 48.5393 156.903 47.9523 157.929 47.5551L159.795 46.833L161.105 49.2799L162.414 51.7268L160.689 53.4517L158.964 55.1767L153.053 55.542L147.142 55.9072L144.833 54.9121ZM153.275 34.6727V32.7475L151.635 32.118L149.994 31.4885L148.289 33.1935C147.352 34.1313 146.584 35.2809 146.584 35.7482V36.5978H149.93H153.275V34.6727ZM169.698 53.9757V53.9757C168.56 52.7172 167.914 51.0898 167.881 49.3931L167.574 33.8657L167.215 15.7073L168.887 14.6192C169.807 14.0207 171.744 13.6611 173.19 13.82L175.82 14.1088L175.647 30.6481L175.474 47.1875L177.769 47.7875V47.7875C179.184 48.1576 180.285 49.2694 180.641 50.6881L180.714 50.9788L181.027 52.2263C181.242 53.0854 181.101 53.9952 180.636 54.7486V54.7486V54.7486C180.183 55.4813 179.383 55.9272 178.522 55.9272H175.685H174.095C172.419 55.9272 170.822 55.2182 169.698 53.9757V53.9757ZM186.928 54.9581V54.9581C185.983 54.359 185.312 53.4122 185.059 52.3223L184.446 49.6782L183.951 47.5455C183.61 46.0754 183.436 44.5713 183.434 43.0621L183.411 30.5966L183.384 15.86L185.541 14.7056C186.728 14.0707 188.735 13.5513 190.002 13.5513H192.306V30.8362V48.1211H194.515V48.1211C195.813 48.1211 196.946 49.0042 197.262 50.2637L197.454 51.0287L197.738 52.1626C198.004 53.2212 197.56 54.3307 196.638 54.9147V54.9147C194.677 56.1568 188.86 56.1829 186.928 54.9581ZM204.572 53.6969V53.6969C203.144 52.2688 202.342 50.332 202.342 48.3124V41.4302V31.3938H200.112H197.881V29.1634V26.9331H200.044H202.207L202.554 22.7513L202.9 18.5695L205.409 18.2131L207.918 17.8568V22.3949V26.9331H212.46H217.003L216.633 28.8847L216.263 30.8362L212.046 31.1849L207.83 31.5336L208.153 40.6637L208.475 49.7938H212.919H217.362L217.739 51.7421V51.7421C217.957 52.8682 217.334 53.988 216.262 54.3956L215.175 54.8088C213.557 55.4239 211.011 55.9272 209.518 55.9272V55.9272C207.779 55.9272 206.112 55.2366 204.883 54.0072L204.572 53.6969ZM280.271 54.314L277.351 52.6641L275.531 48.8301L273.712 44.9961V40.8726V36.749L275.535 32.9071L277.358 29.0652L280.689 27.3429L284.019 25.6206L287.634 26.2987L291.248 26.9767L293.108 29.0316C294.131 30.1618 295.452 32.775 296.044 34.8388L297.12 38.5911L296.492 40.5682L295.865 42.5453H288.134H280.403V44.696V46.8466L282.286 48.7295L284.169 50.6123L289.503 49.9805L294.838 49.3487L295.559 50.5146L296.279 51.6806L294.589 53.3703L292.9 55.0601L288.045 55.512L283.191 55.9639L280.271 54.314ZM290.439 36.8962C290.439 36.2426 289.92 34.7371 289.285 33.5507L288.131 31.3938H285.605C282.565 31.3938 280.403 33.3406 280.403 36.0774V38.0847H285.421H290.439V36.8962ZM223.205 54.1156L222.415 53.3252V42.3595V31.3938H220.185H217.954V29.1023V26.8109L223.251 27.1508L228.548 27.4907V40.8726V54.2545L226.272 54.5803C225.02 54.7595 223.64 54.5504 223.205 54.1156ZM236.701 41.709L236.354 28.6059L237.936 27.2308L239.517 25.8558L240.809 26.9281L242.101 28.0005L245.697 26.6431L249.294 25.2856L252.303 26.9857L255.312 28.6858L258.461 27.1516L261.61 25.6175L264.355 26.3064L267.1 26.9954L268.176 29.8248L269.251 32.6541V43.7331V54.812H266.464H263.676V43.7263V32.6405L262.497 31.9122L261.319 31.1838L258.594 31.8676L255.87 32.5514V43.6817V54.812H253.082H250.294V43.7263V32.6405L249.115 31.9122L247.937 31.1838L245.212 31.8676L242.488 32.5514V43.6817V54.812H239.767H237.047L236.701 41.709ZM222.337 19.5911L220.872 17.8249L222.042 15.9669C222.685 14.945 224.128 13.9288 225.249 13.7088L227.286 13.3087L228.71 15.2568L230.135 17.2048L229.023 19.2811L227.912 21.3573H225.858H223.803L222.337 19.5911ZM2.34441 13.7422C-2.76574 8.09558 4.92732 1.83074 11.4023 6.36597L12.2473 6.95784C13.2711 7.67491 13.8807 8.84626 13.8807 10.0962V10.0962V10.0962C13.8807 11.366 13.3436 12.5765 12.4021 13.4286L11.8414 13.936V13.936C10.5289 15.1238 8.8218 15.7816 7.05159 15.7816H6.99601H6.94043C5.18913 15.7816 3.51954 15.0407 2.34441 13.7422V13.7422ZM78.0773 13.6342L77.498 12.9941C76.6391 12.0451 76.2763 10.7475 76.5184 9.49067V9.49067V9.49067C76.7622 8.22475 77.5513 7.13052 78.6755 6.49952L79.8578 5.83592L80.0417 5.7327C81.7834 4.7551 83.8869 4.66677 85.7045 5.4949V5.4949V5.4949C87.4484 6.28949 88.5962 8.04236 88.5962 9.95879V9.95879V11.2127C88.5962 12.4244 88.1148 13.5865 87.258 14.4433V14.4433V14.4433C86.4012 15.3002 85.2391 15.7815 84.0273 15.7815H82.9702H82.9167C81.0727 15.7815 79.3146 15.0015 78.0773 13.6342V13.6342Z" fill="white"/>
</g>
<defs>
<clipPath id="clip0_4_40">
<rect width="296.44" height="76" fill="white" transform="translate(0.679565)"/>
</clipPath>
</defs>
</svg>
