<svg width="85" height="84" viewBox="0 0 85 84" fill="none" xmlns="http://www.w3.org/2000/svg">
<path d="M11.56 0H73.44C79.53 0 84.5 4.9455 84.5 11.06V72.9435C84.5 79.0335 79.5545 84 73.44 84H11.56C5.47 84 0.5 79.058 0.5 72.9435V11.032C0.5 4.9455 5.442 0 11.56 0Z" fill="#5468FF"/>
<path d="M51.2539 18.7525V15.872C51.2532 14.9053 50.8686 13.9785 50.1847 13.2953C49.5008 12.612 48.5736 12.2283 47.6069 12.2285H39.1054C38.1387 12.2283 37.2115 12.612 36.5277 13.2953C35.8438 13.9785 35.4592 14.9053 35.4584 15.872V18.8295C35.4584 19.1585 35.7629 19.3895 36.0954 19.3125C38.5003 18.6181 40.9913 18.267 43.4944 18.2695C45.9199 18.2695 48.3209 18.5985 50.6414 19.2355C50.9494 19.3125 51.2539 19.085 51.2539 18.7525ZM27.9544 22.522L26.5019 21.0695C26.1635 20.7308 25.7617 20.4622 25.3194 20.2789C24.8771 20.0956 24.403 20.0012 23.9242 20.0012C23.4454 20.0012 22.9713 20.0956 22.529 20.2789C22.0867 20.4622 21.6849 20.7308 21.3464 21.0695L19.6104 22.802C19.2711 23.1393 19.0017 23.5404 18.8179 23.9822C18.6342 24.424 18.5396 24.8978 18.5396 25.3763C18.5396 25.8548 18.6342 26.3285 18.8179 26.7703C19.0017 27.2121 19.2711 27.6132 19.6104 27.9505L21.0384 29.3785C21.2694 29.606 21.6019 29.5535 21.8049 29.326C22.6474 28.169 23.5777 27.0784 24.5874 26.064C25.6057 25.0423 26.7061 24.1058 27.8774 23.264C28.1322 23.11 28.1574 22.753 27.9544 22.522ZM43.4692 31.6675V44.1275C43.4692 44.4845 43.8542 44.74 44.1832 44.5615L55.2607 38.8285C55.5127 38.7025 55.5897 38.3945 55.4637 38.1425C53.1677 34.114 48.9047 31.363 43.9802 31.1845C43.7247 31.1845 43.4692 31.3875 43.4692 31.6675ZM43.4692 61.6835C34.2327 61.6835 26.7287 54.19 26.7287 44.9675C26.7287 35.745 34.2327 28.255 43.4692 28.255C52.7092 28.255 60.2104 35.745 60.2104 44.9675C60.2104 54.19 52.7344 61.6835 43.4692 61.6835ZM43.4692 21.2235C30.3512 21.2235 19.7112 31.8495 19.7112 44.9675C19.7112 58.089 30.3512 68.6905 43.4692 68.6905C56.5872 68.6905 67.2272 58.0645 67.2272 44.943C67.2272 31.8215 56.6117 21.2235 43.4692 21.2235Z" fill="white"/>
</svg>
