<svg width="85" height="84" viewBox="0 0 85 84" fill="none" xmlns="http://www.w3.org/2000/svg">
<g clip-path="url(#clip0_6538_337)">
<path d="M79.607 0L72.8593 75.5912L42.5282 83.9996L12.2806 75.603L5.54004 0H79.607Z" fill="#264DE4"/>
<path d="M67.0823 70.7778L72.8486 6.18164H42.5732V77.5726L67.0823 70.7778Z" fill="#2965F1"/>
<path d="M20.9927 34.2227L21.8238 43.495H42.5736V34.2227H20.9927Z" fill="#EBEBEB"/>
<path d="M42.5735 15.4541H42.5414H19.3228L20.1656 24.7266H42.5735V15.4541Z" fill="#EBEBEB"/>
<path d="M42.5734 67.9508V58.3037L42.5327 58.3145L32.206 55.526L31.5458 48.1309H26.5278H22.2378L23.5369 62.6899L42.5307 67.9628L42.5734 67.9508Z" fill="#EBEBEB"/>
<path d="M53.9595 43.494L52.8832 55.5196L42.5415 58.3109V67.9576L61.5505 62.6893L61.6899 61.1228L63.8689 36.7116L64.0951 34.2217L65.769 15.4541H42.5415V24.7266H55.6073L54.7636 34.2217H42.5415V43.494H53.9595Z" fill="white"/>
</g>
<defs>
<clipPath id="clip0_6538_337">
<rect width="84" height="84" fill="white" transform="translate(0.5)"/>
</clipPath>
</defs>
</svg>
