<svg width="80" height="84" viewBox="0 0 80 84" fill="none" xmlns="http://www.w3.org/2000/svg">
<path d="M1.49454 53.1276C0.504203 49.521 0 45.775 0 42.002C0 24.7783 10.8172 9.02972 26.9192 2.81934L29.0304 8.28322C15.1702 13.6302 5.86101 27.1797 5.86101 42.002C5.86101 45.2533 6.29314 48.4731 7.14394 51.5761L1.49454 53.1276Z" fill="#69D3A7"/>
<path d="M74.2887 25.3633C68.0226 13.3337 55.6883 5.85963 42.1072 5.85963C37.2951 5.85963 32.618 6.78601 28.2155 8.6073L25.9692 3.19737C31.0875 1.07928 36.5163 0 42.1072 0C57.885 0 72.2089 8.67926 79.4879 22.656L74.2887 25.3633Z" fill="url(#paint0_linear_6544_118)"/>
<path d="M29.5348 33.3369C32.9333 33.3369 35.7018 35.1492 37.1243 38.3106L37.2369 38.558L42.9447 36.6197L42.8232 36.3275C40.613 30.9445 35.5217 27.5986 29.5348 27.5986C25.3257 27.5986 21.9046 28.9479 19.0777 31.718C16.2686 34.4702 14.8462 37.9329 14.8462 42.0116C14.8462 46.0545 16.2686 49.4992 19.0777 52.2514C21.9046 55.0216 25.3257 56.3707 29.5348 56.3707C35.5217 56.3707 40.613 53.0249 42.8232 47.6464L42.9447 47.3542L37.2278 45.4114L37.1198 45.6677C35.8458 48.7752 33.0099 50.6325 29.5348 50.6325C27.1669 50.6325 25.1682 49.8051 23.5836 48.177C21.9811 46.5266 21.1708 44.4536 21.1708 42.0162C21.1708 39.5608 21.9631 37.5281 23.5836 35.8012C25.1636 34.1645 27.1669 33.3369 29.5348 33.3369Z" fill="white"/>
<path d="M65.2859 28.1289L57.1517 48.7117L48.9634 28.1289H42.2651L53.7485 56.2218L45.5782 76.0357L51.4348 77.2005L71.6151 28.1289H65.2859Z" fill="white"/>
<path d="M46.6259 73.4819L45.199 76.9357C44.9153 77.6193 44.2671 78.0823 43.5379 78.1138C43.0563 78.1318 42.5701 78.1453 42.0794 78.1453C25.2842 78.1364 10.4246 66.2957 6.74236 49.9805L1.02539 51.2711C3.0916 60.4225 8.27739 68.7286 15.6284 74.6647C23.065 80.6681 32.4326 83.9824 42.0164 84.0005C42.0299 84.0005 42.1018 84.0005 42.1018 84.0005C42.6646 84.0005 43.2227 83.987 43.781 83.9646C46.788 83.8386 49.4755 81.9544 50.6233 79.1617L52.4869 74.6467L46.6259 73.4819Z" fill="url(#paint1_linear_6544_118)"/>
<defs>
<linearGradient id="paint0_linear_6544_118" x1="37.7257" y1="-2.71148" x2="69.6893" y2="31.4515" gradientUnits="userSpaceOnUse">
<stop offset="0.0939" stop-color="#58D09E"/>
<stop offset="0.9883" stop-color="#58D09E" stop-opacity="0"/>
</linearGradient>
<linearGradient id="paint1_linear_6544_118" x1="-0.448729" y1="61.1131" x2="60.6165" y2="77.3666" gradientUnits="userSpaceOnUse">
<stop offset="0.0774" stop-color="#58D09E"/>
<stop offset="0.7617" stop-color="#1B1E2E"/>
</linearGradient>
</defs>
</svg>
