<svg width="85" height="84" viewBox="0 0 85 84" fill="none" xmlns="http://www.w3.org/2000/svg">
<path d="M52.0805 30.3395L43.6798 38.1613L35.8818 22.4258L39.9102 13.3781C40.9284 11.5734 42.5935 11.5495 43.6117 13.3781L52.0805 30.3395Z" fill="#FFA000"/>
<path d="M43.6832 38.1579L12.2598 67.3849L35.8853 22.4258L43.6832 38.1579Z" fill="#F57F17"/>
<path d="M61.2916 18.3769C62.7967 16.9433 64.3461 17.4269 64.7376 19.4632L72.9068 66.9899L45.8114 83.2566C44.8613 83.7879 42.3415 83.9956 42.3415 83.9956C42.3415 83.9956 40.0497 83.7164 39.1713 83.2328L12.2598 67.3848L61.2916 18.3769Z" fill="#FFCA28"/>
<path d="M35.8852 22.4251L12.2598 67.3841L22.7887 1.67025C23.1837 -0.366074 24.3381 -0.573791 25.3801 1.23097L35.8852 22.4251Z" fill="#FFA000"/>
</svg>
