<svg width="85" height="84" viewBox="0 0 85 84" fill="none" xmlns="http://www.w3.org/2000/svg">
<g clip-path="url(#clip0_6538_368)">
<path d="M82.9158 38.2583L46.2406 1.58508C44.1298 -0.527059 40.7042 -0.527059 38.5907 1.58508L30.975 9.20083L40.636 18.8618C42.8809 18.1032 45.4555 18.6121 47.245 20.4017C49.0431 22.2028 49.5484 24.7993 48.7714 27.0515L58.082 36.3624C60.3345 35.5864 62.9337 36.0884 64.7328 37.8904C67.2472 40.4039 67.2472 44.4776 64.7328 46.9927C62.2177 49.5081 58.144 49.5081 55.6276 46.9927C53.7363 45.0994 53.2691 42.3218 54.2266 39.9918L45.5437 31.309L45.5427 54.1586C46.1721 54.4698 46.747 54.8809 47.245 55.3759C49.7594 57.8893 49.7594 61.9633 47.245 64.4804C44.7299 66.9945 40.6543 66.9945 38.1428 64.4804C35.6284 61.9633 35.6284 57.8897 38.1428 55.3762C38.7454 54.7734 39.4615 54.296 40.2497 53.9716V30.909C39.4604 30.5867 38.7439 30.109 38.1428 29.5042C36.2377 27.6018 35.7797 24.8065 36.7558 22.4673L27.2323 12.9428L2.08484 38.0887C-0.0282815 40.2028 -0.0282815 43.6287 2.08484 45.7412L38.7607 82.4151C40.8722 84.5272 44.2972 84.5272 46.4112 82.4151L82.9155 45.9115C85.0284 43.7983 85.0284 40.3705 82.9158 38.2583Z" fill="#DE4C36"/>
</g>
<defs>
<clipPath id="clip0_6538_368">
<rect width="84" height="84" fill="white" transform="translate(0.5)"/>
</clipPath>
</defs>
</svg>
