<svg width="85" height="84" viewBox="0 0 85 84" fill="none" xmlns="http://www.w3.org/2000/svg">
<path d="M43.0002 1C19.8071 1 1 19.8038 1 43.0002C1 61.5572 13.0343 77.3006 29.7224 82.8543C31.8213 83.243 32.5921 81.9432 32.5921 80.8337C32.5921 79.8324 32.5529 76.5235 32.5351 73.0141C20.8503 75.5548 18.3848 68.0586 18.3848 68.0586C16.4742 63.2039 13.7214 61.9133 13.7214 61.9133C9.91093 59.3065 14.0087 59.3598 14.0087 59.3598C18.2263 59.6563 20.4471 63.6881 20.4471 63.6881C24.1931 70.1091 30.2725 68.2526 32.6692 67.1798C33.046 64.4649 34.1347 62.6123 35.3357 61.5635C26.0071 60.5012 16.2002 56.8999 16.2002 40.8067C16.2002 36.2214 17.8409 32.4745 20.5278 29.5333C20.0917 28.4753 18.6542 24.2036 20.9346 18.4183C20.9346 18.4183 24.4615 17.2895 32.4877 22.7236C35.8377 21.7927 39.4308 21.3263 43.0002 21.3105C46.5695 21.3263 50.1653 21.7927 53.5219 22.7236C61.5385 17.2895 65.0604 18.4183 65.0604 18.4183C67.3465 24.2036 65.9083 28.4753 65.4722 29.5333C68.165 32.4745 69.7946 36.2211 69.7946 40.8067C69.7946 56.9381 59.9692 60.4903 50.6169 61.5299C52.1232 62.8333 53.4655 65.3895 53.4655 69.3077C53.4655 74.9273 53.4168 79.4503 53.4168 80.8337C53.4168 81.9514 54.1728 83.2611 56.302 82.8487C72.9808 77.2887 85 61.551 85 43.0002C85 19.8038 66.1955 1 43.0002 1Z" fill="white"/>
<path d="M16.7304 60.8304C16.6382 61.0389 16.3094 61.1015 16.0106 60.9585C15.706 60.8215 15.5347 60.5369 15.6335 60.3274C15.7241 60.1126 16.0528 60.0527 16.3568 60.1969C16.6622 60.3336 16.8361 60.6209 16.7304 60.8304V60.8304ZM18.7964 62.6737C18.5961 62.8595 18.2045 62.7732 17.9386 62.4797C17.6639 62.1868 17.6125 61.7955 17.8158 61.6068C18.0223 61.4213 18.4021 61.5079 18.6775 61.8011C18.9522 62.0972 19.0056 62.4863 18.7961 62.674L18.7964 62.6737ZM20.2138 65.0322C19.9562 65.2111 19.5352 65.0434 19.2753 64.6699C19.0181 64.2967 19.0181 63.8487 19.2809 63.6691C19.5418 63.4896 19.9562 63.651 20.2197 64.0216C20.4767 64.4014 20.4767 64.8494 20.2135 65.0325L20.2138 65.0322ZM22.6105 67.7639C22.3803 68.0176 21.8901 67.9497 21.5311 67.6032C21.1641 67.2646 21.0617 66.784 21.2926 66.53C21.5255 66.2757 22.0186 66.3472 22.3803 66.6907C22.7449 67.0287 22.8563 67.5129 22.6109 67.7639H22.6105ZM25.7082 68.6862C25.6071 69.015 25.1347 69.1645 24.6591 69.0249C24.1841 68.8809 23.8731 68.4955 23.969 68.1632C24.0678 67.8321 24.5421 67.6763 25.0214 67.8258C25.4957 67.9691 25.8074 68.3516 25.7085 68.6862H25.7082ZM29.2341 69.0772C29.246 69.4238 28.8425 69.711 28.3431 69.7173C27.8407 69.7281 27.4346 69.4478 27.4293 69.1072C27.4293 68.7574 27.8236 68.4728 28.3256 68.4646C28.825 68.4547 29.2341 68.733 29.2341 69.0772V69.0772ZM32.6974 68.9445C32.7574 69.2825 32.4102 69.6296 31.9144 69.7219C31.4269 69.8108 30.9757 69.6023 30.9134 69.2673C30.8528 68.9208 31.2066 68.5739 31.6931 68.484C32.1898 68.3977 32.6342 68.6009 32.6974 68.9445" fill="white"/>
</svg>
