<svg width="85" height="84" viewBox="0 0 85 84" fill="none" xmlns="http://www.w3.org/2000/svg">
<path d="M72.83 0H12.56C8.36 0 5 3.36 5 7.56V76.44C5 80.64 8.36 84 12.56 84H72.83C77.03 84 80.39 80.64 80.39 76.44V7.56C80.39 3.36 77.03 0 72.83 0ZM76.19 76.44C76.19 78.33 74.72 79.8 72.83 79.8H12.56C10.67 79.8 9.2 78.33 9.2 76.44V7.56C9.2 5.67 10.67 4.2 12.56 4.2H72.83C74.72 4.2 76.19 5.67 76.19 7.56V76.44ZM23.9 71.4L33.35 63L23.9 54.6V71.4ZM57.92 37.38C56.24 35.7 53.09 33.6 47.84 33.6C42.17 33.6 36.29 35.07 32.09 36.54V12.6H23.69V48.93L29.57 46.2C29.57 46.2 39.23 41.79 47.63 41.79C51.83 41.79 52.88 44.1 52.88 46.2V71.4H61.28V46.2C61.49 45.57 61.49 40.95 57.92 37.38ZM46.79 26.25H55.19C58.97 21.84 60.86 17.43 61.49 12.6H53.09C52.25 17.43 50.15 21.84 46.79 26.25Z" fill="white"/>
</svg>
