<svg width="85" height="84" viewBox="0 0 85 84" fill="none" xmlns="http://www.w3.org/2000/svg">
<g clip-path="url(#clip0_6538_330)">
<path d="M12.278 75.6286L5.54004 0H79.6169L72.8789 75.5877L42.5172 83.9996" fill="#E44D26"/>
<path d="M42.5781 77.5693V6.20801H72.8582L67.0798 70.7291" fill="#F16529"/>
<path d="M19.3018 15.457H42.5783V24.7269H29.47L30.3275 34.2212H42.5783V43.4706H21.8336L19.3018 15.457ZM22.2419 48.126H31.5526L32.2059 55.5377L42.5783 58.3146V67.9927L23.5487 62.684" fill="#EBEBEB"/>
<path d="M65.7729 15.457H42.5371V24.7269H64.9153L65.7729 15.457ZM64.0782 34.2212H42.5371V43.491H53.9712L52.8891 55.5377L42.5371 58.3146V67.9519L61.5259 62.684" fill="white"/>
</g>
<defs>
<clipPath id="clip0_6538_330">
<rect width="84" height="84" fill="white" transform="translate(0.5)"/>
</clipPath>
</defs>
</svg>
