<svg width="77" height="84" viewBox="0 0 77 84" fill="none" xmlns="http://www.w3.org/2000/svg">
<path d="M71.6747 41.2436C71.6747 36.9377 68.1838 33.4468 63.8779 33.4468C63.6007 33.4468 63.3277 33.4617 63.0582 33.4902L73.7671 1.90527H28.2578L38.9519 33.4626C38.7941 33.4526 38.6361 33.4475 38.478 33.4471C34.1721 33.4471 30.6812 36.9374 30.6812 41.2439C30.6812 44.7244 32.9623 47.6713 36.1104 48.6739C34.4478 51.554 32.3554 54.1482 29.9798 56.3896C26.7495 59.4368 23.0526 61.7477 19.0542 63.1714C14.2936 60.7258 12.0457 55.2871 14.074 50.5185C14.3031 49.9798 14.537 49.434 14.7605 48.8905C18.2093 48.0856 20.7795 44.9939 20.7795 41.2997C20.7795 36.9935 17.2886 33.5029 12.9824 33.5029C8.67621 33.5029 5.18561 36.9935 5.18561 41.2997C5.18561 43.9403 6.49922 46.2728 8.50763 47.6832C6.57787 52.0769 3.74111 56.6755 2.85726 62.005C1.798 68.392 2.85369 75.172 8.37793 79.0009C21.2434 87.9178 35.2088 73.4731 49.9333 69.8419C55.2697 68.5262 61.1275 68.7381 65.8291 66.0153C69.3597 63.9704 71.6875 60.5813 72.3479 56.7767C73.0008 53.0181 72.0493 49.2758 69.8613 46.2413C71.0351 44.8408 71.6773 43.071 71.6747 41.2436" fill="#99425B"/>
<path d="M70.4719 56.4507C69.8985 59.754 67.8583 62.6392 64.8749 64.3674C62.0936 65.9781 58.7609 66.4589 55.2321 66.9676C53.3418 67.2401 51.3871 67.5223 49.4775 67.9931C44.4284 69.2381 39.5379 71.6674 34.8087 74.0165C25.3439 78.7177 17.1702 82.7773 9.46306 77.4356C3.81744 73.5229 4.07802 66.2835 4.73572 62.3166C5.34534 58.6411 6.99344 55.2561 8.58693 51.9828C8.85841 51.4265 9.1277 50.8691 9.3948 50.3106C10.1981 50.6317 11.0409 50.8432 11.9006 50.9392C10.2784 56.2931 12.8296 62.1145 18.1841 64.8651L18.9172 65.2418L19.693 64.9655C23.9262 63.4577 27.8269 61.0389 31.2867 57.7744C33.523 55.6645 35.4459 53.3302 37.0264 50.836C37.5069 50.9084 37.9921 50.9449 38.478 50.9449C43.3926 50.9449 47.4623 47.2709 48.0921 42.5257C50.1037 42.4521 52.2404 42.4515 54.2636 42.5251C54.8928 47.2709 58.9631 50.9452 63.8777 50.9452C65.9327 50.9452 67.8387 50.3011 69.409 49.2072C70.4992 51.4387 70.9061 53.9496 70.4719 56.4507V56.4507ZM12.9828 35.4071C16.2321 35.4071 18.8753 38.0506 18.8753 41.2999C18.8753 42.4669 18.5328 43.5553 17.9449 44.4718C16.9654 45.9994 15.3004 47.0465 13.3876 47.1771C13.2537 47.186 13.1187 47.1925 12.9828 47.1925C12.2586 47.1925 11.565 47.0604 10.9236 46.8206C9.63189 46.3349 8.55021 45.4136 7.86512 44.2157C7.35641 43.3282 7.08913 42.3229 7.0899 41.2999C7.0899 38.0506 9.73344 35.4071 12.9828 35.4071V35.4071ZM32.5857 41.2439C32.5857 38.2916 34.7681 35.8404 37.6036 35.4166C37.8892 35.3736 38.1812 35.3513 38.4783 35.3513C40.3674 35.3513 42.0493 36.2461 43.1279 37.6328C43.398 37.9785 43.6288 38.3533 43.8158 38.7502C44.1821 39.5304 44.3716 40.3819 44.3709 41.2439C44.3709 41.7149 44.3139 42.1728 44.2091 42.6121C43.6348 45.0161 41.5848 46.8539 39.0728 47.1067C38.8775 47.1263 38.6792 47.1364 38.4783 47.1364C37.3449 47.1373 36.2355 46.8094 35.2848 46.1923C33.6625 45.1414 32.5857 43.3164 32.5857 41.2439V41.2439ZM57.1796 34.2365C55.8973 35.4605 54.9745 37.0121 54.5111 38.7232C52.2901 38.6413 50.0668 38.6413 47.8457 38.7232C47.3471 36.8736 46.3137 35.2418 44.9232 34.0024L51.0208 21.6729L57.1796 34.2365ZM30.9139 3.81004H71.1109L61.6167 31.8111C61.2082 31.909 60.8066 32.0334 60.4144 32.1836L51.0357 13.0513L41.6303 32.0693C41.2202 31.9286 40.8012 31.8157 40.376 31.7313L30.9139 3.81004ZM69.7702 41.2442C69.7702 41.8348 69.6821 42.4052 69.5197 42.9439C69.1346 44.2121 68.3347 45.3143 67.2484 46.0736C66.261 46.7665 65.0839 47.1378 63.8777 47.1367C61.157 47.1367 58.8619 45.2826 58.1869 42.7718C58.0529 42.2736 57.9851 41.76 57.9851 41.2442C57.9851 40.4387 58.1478 39.6705 58.4416 38.9707C58.5932 38.6126 58.7799 38.2704 58.999 37.9491C60.0594 36.3838 61.8488 35.3516 63.8777 35.3516C64.0638 35.3516 64.2472 35.3611 64.4291 35.3783C67.4208 35.657 69.7705 38.1806 69.7705 41.2442H69.7702ZM73.579 41.2442C73.579 36.5079 70.1665 32.5561 65.6718 31.712L76.4235 0.000976562H25.6019L36.3702 31.7761C32.0316 32.7416 28.7773 36.6186 28.7773 41.2439C28.7773 44.7169 30.6126 47.7674 33.3633 49.4817C32.0402 51.453 30.4714 53.308 28.6734 55.0044C25.8218 57.6943 22.6452 59.7345 19.2205 61.0769C15.7708 58.91 14.3127 54.8234 15.8269 51.2636L15.9457 50.9847L16.1682 50.4611C19.9571 49.1395 22.6838 45.5334 22.6838 41.2999C22.6838 35.9505 18.3319 31.5986 12.9828 31.5986C7.63362 31.5986 3.28113 35.9505 3.28113 41.2999C3.28113 43.9999 4.39114 46.4449 6.17725 48.2055C5.84413 48.9113 5.50597 49.6147 5.16281 50.3157C3.52955 53.6698 1.67874 57.4714 0.978597 61.6933C-0.411589 70.0777 1.83099 76.7803 7.2935 80.5659C10.6081 82.8631 13.9743 83.7665 17.3617 83.7665C23.7398 83.7665 30.1921 80.562 36.5028 77.4273C41.0476 75.1702 45.7474 72.8359 50.3896 71.6908C52.1169 71.2649 53.8941 71.0085 55.7758 70.7372C59.5074 70.1988 63.3657 69.6424 66.7836 67.663C70.7455 65.3682 73.4573 61.5188 74.2242 57.1025C74.8825 53.3109 74.0904 49.5134 72.1583 46.2926C73.0892 44.7733 73.581 43.0257 73.579 41.2439V41.2442Z" fill="white"/>
</svg>
