<svg width="85" height="84" viewBox="0 0 85 84" fill="none" xmlns="http://www.w3.org/2000/svg">
<g clip-path="url(#clip0_6538_320)">
<path d="M84.5 0H0.5V83.9996H84.5V0Z" fill="#F7DF1E"/>
<path d="M56.9265 65.6258C58.6185 68.3885 60.8198 70.4192 64.7132 70.4192C67.9838 70.4192 70.0732 68.7844 70.0732 66.5258C70.0732 63.8191 67.9265 62.8605 64.3265 61.2857L62.3531 60.4391C56.6572 58.0124 52.8731 54.9725 52.8731 48.5458C52.8731 42.6258 57.3839 38.1191 64.4331 38.1191C69.4518 38.1191 73.0599 39.8658 75.6598 44.4391L69.5131 48.3858C68.1598 45.9591 66.6998 45.0031 64.4331 45.0031C62.1212 45.0031 60.6558 46.4698 60.6558 48.3858C60.6558 50.7538 62.1225 51.7124 65.5092 53.1792L67.4825 54.0245C74.1892 56.9004 77.9759 59.8325 77.9759 66.4244C77.9759 73.5311 72.3931 77.4244 64.8958 77.4244C57.5651 77.4244 52.8291 73.9311 50.5118 69.3524L56.9265 65.6258ZM29.0425 66.3098C30.2825 68.5098 31.4105 70.3698 34.1225 70.3698C36.7158 70.3698 38.3518 69.3551 38.3518 65.4098V38.5698H46.2451V65.5165C46.2451 73.6898 41.4532 77.4098 34.4585 77.4098C28.1385 77.4098 24.4785 74.1391 22.6172 70.1998L29.0425 66.3098Z" fill="black"/>
</g>
<defs>
<clipPath id="clip0_6538_320">
<rect width="84" height="84" fill="white" transform="translate(0.5)"/>
</clipPath>
</defs>
</svg>
