<svg width="85" height="84" viewBox="0 0 85 84" fill="none" xmlns="http://www.w3.org/2000/svg">
<g clip-path="url(#clip0_6538_395)">
<path d="M42.6221 0.229492L44.8637 4.43968C45.3676 5.21662 45.9136 5.90432 46.5566 6.54477C48.442 8.40659 50.1994 10.3938 51.8168 12.4926C55.6149 17.4797 58.1767 23.0181 60.0062 29.0078C61.1034 32.6668 61.6992 36.4203 61.7438 40.2158C61.9276 51.5628 58.0376 61.3061 50.1947 69.4036C48.9189 70.6877 47.5407 71.8657 46.0737 72.9261C45.2967 72.9261 44.9293 72.3303 44.6091 71.7817C44.0259 70.7644 43.6378 69.6472 43.4647 68.4875C43.1891 67.1148 43.0079 65.742 43.0972 64.3246V63.6841C43.0342 63.5476 42.3491 0.552343 42.6221 0.229492Z" fill="#599636"/>
<path d="M42.6223 0.0903013C42.5304 -0.0934352 42.4386 0.0456794 42.3467 0.134923C42.3913 1.05361 42.0711 1.87255 41.5697 2.65474C41.0185 3.43168 40.2888 4.02751 39.5565 4.66797C35.4881 8.19046 32.2857 12.4453 29.7213 17.2041C26.309 23.6085 24.5504 30.4724 24.0517 37.6985C23.8234 40.305 24.8759 49.5023 25.6975 52.1559C27.9391 59.2009 31.9655 65.1041 37.1811 70.2277C38.4619 71.4614 39.8321 72.6058 41.2495 73.7056C41.6615 73.7056 41.7062 73.3381 41.8007 73.0651C41.9813 72.481 42.1191 71.8845 42.2128 71.2803L43.1315 64.419L42.6223 0.0903013Z" fill="#6CAC48"/>
<path d="M44.8639 75.7137C44.9558 74.6638 45.4598 73.7924 46.0084 72.9236C45.4572 72.6952 45.0477 72.2411 44.7274 71.7346C44.4513 71.2549 44.2227 70.7494 44.0449 70.2253C43.4045 68.3039 43.268 66.2881 43.0843 64.3248V63.1357C42.8559 63.3195 42.8086 64.8734 42.8086 65.1043C42.6751 67.1794 42.3997 69.243 41.9845 71.2805C41.848 72.1046 41.7561 72.9262 41.2495 73.6585C41.2495 73.7504 41.2495 73.8422 41.2942 73.9787C42.1183 76.404 42.3441 78.874 42.4832 81.3911V82.3098C42.4832 83.407 42.4386 83.176 43.3494 83.5435C43.7168 83.68 44.1263 83.7272 44.4938 84.0006C44.7694 84.0006 44.8141 83.7719 44.8141 83.5881L44.6776 82.0788V77.8687C44.6329 77.1338 44.7694 76.404 44.8613 75.7163L44.8639 75.7137Z" fill="#C2BFBF"/>
</g>
<defs>
<clipPath id="clip0_6538_395">
<rect width="84" height="84" fill="white" transform="translate(0.5)"/>
</clipPath>
</defs>
</svg>
