<svg width="85" height="84" viewBox="0 0 85 84" fill="none" xmlns="http://www.w3.org/2000/svg">
<g clip-path="url(#clip0_6538_391)">
<path fill-rule="evenodd" clip-rule="evenodd" d="M49.9602 0C49.3528 0 48.7887 0.130163 48.2681 0.303704C49.3745 1.04127 49.9819 2.01747 50.2855 3.12381C50.3073 3.27566 50.3506 3.38413 50.3724 3.53598C50.3941 3.66614 50.4157 3.7963 50.4157 3.92646C50.5025 5.83545 49.9168 6.07407 49.5046 7.20211C48.8755 8.65558 49.0491 10.2175 49.8083 11.4756C49.8734 11.6275 49.9602 11.801 50.0687 11.9529C49.2443 6.46455 53.8215 5.64021 54.6676 3.92646C54.7327 2.42963 53.4962 1.43174 52.5199 0.737566C51.5871 0.173546 50.7412 0 49.9602 0ZM56.8586 1.23651C56.7718 1.73545 56.8369 1.60529 56.8152 1.86561C56.7935 2.03916 56.7935 2.25609 56.7719 2.42963C56.7285 2.60317 56.6851 2.77672 56.62 2.95027C56.5766 3.12381 56.5115 3.29736 56.4465 3.4709C56.3597 3.64445 56.2946 3.79629 56.2079 3.96985C56.1428 4.05665 56.0994 4.14338 56.0343 4.23016C55.991 4.29524 55.9475 4.36032 55.9041 4.4254C55.7957 4.57726 55.6872 4.7291 55.5787 4.85926C55.4486 4.98942 55.3402 5.14127 55.1883 5.24975V5.27146C55.0581 5.37993 54.928 5.51009 54.7761 5.61855C54.3206 5.96563 53.7999 6.22596 53.3226 6.55136C53.1709 6.65982 53.019 6.7466 52.8888 6.87676C52.737 6.98522 52.6068 7.09368 52.4767 7.22385C52.3248 7.354 52.2163 7.48416 52.0862 7.63602C51.9777 7.76617 51.8475 7.91802 51.7607 8.06988C51.6523 8.22172 51.5439 8.37358 51.4571 8.52547C51.3702 8.69901 51.3052 8.8508 51.2184 9.02434C51.1533 9.19789 51.0882 9.34976 51.0449 9.5233C50.9798 9.71852 50.9365 9.89206 50.893 10.0656C50.8714 10.1525 50.8714 10.2609 50.8497 10.3477C50.8279 10.4345 50.8279 10.5212 50.8063 10.608C50.8063 10.7815 50.7846 10.9768 50.7846 11.1503C50.7846 11.2804 50.7846 11.4106 50.8063 11.5408C50.8063 11.7144 50.8281 11.8878 50.8714 12.0831C50.8931 12.2567 50.9365 12.4302 50.9799 12.6038C51.045 12.7773 51.0883 12.9508 51.1534 13.1244C51.1968 13.2328 51.2619 13.3413 51.3053 13.428L46.3159 11.4974C45.4698 11.2587 44.6455 11.0419 43.7995 10.8466C43.3439 10.7381 42.8883 10.6297 42.4328 10.5212C41.1312 10.2609 39.808 10.0656 38.4846 9.93549C38.4413 9.93549 38.4195 9.91374 38.3762 9.91374C37.0746 9.78362 35.7947 9.71852 34.4931 9.71852C33.5386 9.71852 32.5841 9.76186 31.6513 9.82696C30.328 9.91382 29.0047 10.0873 27.6815 10.3043C27.3561 10.3476 27.0306 10.4127 26.7052 10.4778C26.0328 10.6079 25.382 10.7598 24.7529 10.9117C24.4275 10.9984 24.1021 11.0852 23.7767 11.172C23.4513 11.3021 23.1476 11.454 22.8439 11.5842C22.6053 11.6926 22.3666 11.801 22.128 11.9096C22.0846 11.9312 22.0412 11.9312 22.0195 11.9529C21.8027 12.0614 21.6074 12.1481 21.4121 12.2566C21.347 12.2783 21.3037 12.2999 21.2603 12.3217C21.0217 12.4301 20.7831 12.5603 20.5878 12.6688C20.436 12.7339 20.2841 12.8206 20.154 12.8857C20.0889 12.9291 20.0021 12.9725 19.9587 12.9942C19.7635 13.1026 19.5683 13.2111 19.3947 13.3195C19.1994 13.428 19.0259 13.5365 18.8741 13.6449C18.7222 13.7535 18.5703 13.8401 18.4402 13.9487C18.4185 13.9703 18.3968 13.9703 18.3751 13.992C18.2449 14.0788 18.0931 14.1872 17.9629 14.2957C17.9629 14.2957 17.9412 14.3174 17.9196 14.3391C17.8111 14.4259 17.7026 14.5126 17.5942 14.5993C17.5508 14.6211 17.5074 14.6644 17.4641 14.6862C17.3555 14.773 17.2471 14.8814 17.1386 14.9682C17.1169 15.0115 17.0735 15.0333 17.0519 15.055C16.9217 15.1852 16.7915 15.2936 16.6613 15.4238C16.6396 15.4238 16.6396 15.4455 16.618 15.4671C16.4878 15.5756 16.3577 15.7058 16.2275 15.8359C16.2058 15.8577 16.2058 15.8792 16.1841 15.8792C16.0757 15.9878 15.9673 16.0962 15.8587 16.2263C15.8154 16.2697 15.7503 16.3132 15.7069 16.3565C15.5985 16.4867 15.4683 16.6169 15.3381 16.747C15.3164 16.7903 15.2731 16.8121 15.2513 16.8555C15.0778 17.029 14.9259 17.2026 14.7524 17.3761C14.7307 17.3978 14.709 17.4195 14.6873 17.4411C14.3402 17.81 13.9714 18.1787 13.581 18.5042C13.1905 18.8513 12.7783 19.1767 12.3662 19.4587C11.9323 19.7623 11.5201 20.0226 11.0645 20.2829C10.6307 20.5216 10.1751 20.7386 9.69792 20.9338C9.2423 21.129 8.76508 21.3025 8.28783 21.4544C7.37672 21.6496 6.44392 22.0184 5.64127 22.0835C5.46773 22.0835 5.27248 22.1268 5.09894 22.1486C4.9037 22.1919 4.73016 22.2354 4.55662 22.2788C4.38308 22.3438 4.20952 22.4089 4.03598 22.474C3.86244 22.539 3.68889 22.6259 3.51535 22.7126C3.36349 22.8211 3.18995 22.9079 3.03809 23.0163C2.88625 23.1248 2.73439 23.255 2.60423 23.3851C2.45239 23.4936 2.30053 23.6454 2.17037 23.7756C2.04021 23.9275 1.91005 24.0576 1.80159 24.2094C1.69312 24.383 1.56296 24.5349 1.47619 24.7084C1.36772 24.8602 1.25926 25.0337 1.17248 25.2073C1.08568 25.4026 0.998941 25.5761 0.933861 25.7713C0.868781 25.9449 0.803701 26.1401 0.738621 26.3354C0.695269 26.5089 0.651815 26.6825 0.630159 26.8559C0.630159 26.8777 0.608432 26.8994 0.608432 26.921C0.565079 27.1163 0.565079 27.3767 0.543352 27.5068C0.521625 27.6587 0.5 27.7888 0.5 27.9406C0.5 28.0275 0.5 28.1359 0.521727 28.2226C0.543453 28.3745 0.565078 28.5047 0.608534 28.6348C0.651886 28.765 0.695341 28.8951 0.76038 29.0253V29.047C0.82546 29.1772 0.912236 29.3073 0.999003 29.4375C1.08581 29.5676 1.17256 29.6978 1.28102 29.828C1.38948 29.9365 1.51964 30.0666 1.6498 30.1751C1.77996 30.3052 1.91012 30.4137 2.06196 30.5221C2.5826 30.9777 2.71276 31.1296 3.38525 31.4767C3.49371 31.5417 3.60219 31.5851 3.73235 31.6502C3.75408 31.6502 3.7757 31.6719 3.79743 31.6719C3.79743 31.7153 3.79743 31.737 3.81916 31.7804C3.84088 31.954 3.88423 32.1275 3.92762 32.3011C3.97097 32.4963 4.03609 32.6698 4.10117 32.8217C4.16626 32.9518 4.20963 33.082 4.27472 33.2121C4.29644 33.2555 4.31807 33.299 4.3398 33.3206C4.4266 33.4941 4.51334 33.646 4.60011 33.7979C4.70858 33.9497 4.81704 34.1015 4.92551 34.2534C5.03397 34.3836 5.16413 34.5355 5.29428 34.6656C5.42445 34.7958 5.55461 34.9042 5.70646 35.0344C5.70646 35.0344 5.72819 35.0561 5.74982 35.0561C5.87997 35.1646 6.01013 35.2731 6.1403 35.3599C6.29214 35.4683 6.444 35.5551 6.61754 35.6418C6.7694 35.7286 6.94294 35.8154 7.11648 35.8805C7.24664 35.9456 7.39848 35.9889 7.55035 36.0324C7.57208 36.054 7.5937 36.0541 7.63715 36.0757C7.72396 36.0975 7.83238 36.119 7.91916 36.1407C7.85407 37.3122 7.83235 38.4186 8.00596 38.809C8.2012 39.2428 9.1557 37.9196 10.1102 36.4011C9.98007 37.8979 9.8933 39.655 10.1102 40.1757C10.3488 40.718 11.6504 39.026 12.7784 37.1603C28.1588 33.6027 42.1943 44.2323 43.6694 59.2439C43.3875 56.9011 40.5022 55.5995 39.179 55.9249C38.5282 57.5301 37.4219 59.591 35.643 60.8709C35.7949 59.4391 35.7299 57.964 35.4261 56.5323C34.9488 58.5281 34.016 60.3937 32.7361 61.9989C30.6753 62.1508 28.6145 61.1529 27.5298 59.6561C27.443 59.591 27.4213 59.4609 27.3562 59.3741C27.2911 59.2222 27.226 59.0704 27.1827 58.9185C27.1176 58.7667 27.0742 58.6148 27.0525 58.463C27.0308 58.3111 27.0308 58.1593 27.0308 57.9858C27.0308 57.8772 27.0308 57.7688 27.0308 57.6603C27.0525 57.5085 27.0959 57.3566 27.1393 57.2048C27.1826 57.0529 27.226 56.9011 27.2911 56.7492C27.3779 56.5974 27.443 56.4455 27.5514 56.2937C27.9202 55.2524 27.9202 54.4064 27.2477 53.9074C27.1176 53.8206 26.9874 53.7556 26.8355 53.6905C26.7487 53.6688 26.6403 53.6254 26.5535 53.6036C26.4885 53.582 26.4451 53.5603 26.38 53.5386C26.2281 53.4953 26.0763 53.4518 25.9244 53.4301C25.7726 53.3868 25.6207 53.3651 25.4689 53.3651C25.317 53.3433 25.1435 53.3217 24.9916 53.3217C24.8832 53.3217 24.7747 53.3434 24.6662 53.3434C24.4927 53.3434 24.3409 53.3652 24.189 53.4085C24.0371 53.4303 23.8853 53.4519 23.7335 53.4953C23.5816 53.5386 23.4297 53.5821 23.2779 53.6472C23.1261 53.7123 22.9959 53.7774 22.844 53.8424C22.7139 53.9075 22.5837 53.9943 22.4318 54.0594C17.3774 57.3567 20.3927 65.0795 23.8419 67.3138C22.5403 67.5524 21.217 67.8345 20.8482 68.1165C20.8265 68.1382 20.8049 68.1598 20.8049 68.1598C21.7377 68.7238 22.7139 69.2011 23.7335 69.6133C25.1218 70.0688 26.597 70.481 27.2478 70.6546V70.6762C29.0483 71.0451 30.8705 71.1752 32.7144 71.0667C42.3245 70.3942 50.1991 63.0836 51.6309 53.4519C51.6742 53.6472 51.7177 53.8207 51.761 54.0159C51.8261 54.4064 51.9129 54.8186 51.9562 55.2307V55.2525C51.9996 55.4478 52.0213 55.643 52.0431 55.8165V55.9033C52.0648 56.0985 52.0864 56.2938 52.0864 56.4674C52.1081 56.706 52.1298 56.9446 52.1298 57.1832V57.5303C52.1298 57.6388 52.1514 57.769 52.1514 57.8774C52.1514 58.0076 52.1298 58.1377 52.1298 58.2679V58.5716C52.1298 58.7234 52.108 58.8536 52.108 59.0054C52.108 59.0922 52.108 59.179 52.0862 59.2874C52.0862 59.4393 52.0646 59.5912 52.0646 59.7647C52.0428 59.8298 52.0428 59.8949 52.0428 59.9599C52.0211 60.1335 51.9995 60.2853 51.9777 60.4589C51.9777 60.524 51.9777 60.5891 51.956 60.6541C51.9342 60.8711 51.8909 61.0663 51.8692 61.2833V61.305V61.3267C51.8258 61.5219 51.7824 61.7389 51.739 61.9341V61.9992C51.6956 62.1944 51.6522 62.3896 51.6089 62.5849C51.6089 62.6067 51.5872 62.6499 51.5872 62.6717C51.5438 62.8669 51.5003 63.0622 51.4353 63.2574V63.3225C51.3702 63.5394 51.3051 63.7346 51.2618 63.9299C51.24 63.9516 51.24 63.9733 51.24 63.9733C51.1749 64.1902 51.1099 64.4071 51.0448 64.624C50.958 64.841 50.8929 65.0362 50.8062 65.2532C50.7194 65.4701 50.6543 65.6871 50.5675 65.8823C50.4808 66.0992 50.394 66.2945 50.3072 66.5113H50.2855C50.1987 66.7066 50.1119 66.9235 50.0035 67.1187C49.9817 67.1838 49.9601 67.2273 49.9384 67.2706C49.9167 67.2924 49.9167 67.314 49.895 67.3357C48.485 70.1775 46.4025 72.6722 43.7993 74.6246C43.6258 74.7331 43.4521 74.8632 43.2787 74.9934C43.2352 75.0368 43.1702 75.0584 43.1268 75.1019C42.9749 75.2103 42.8231 75.3187 42.6495 75.4273L42.7146 75.5574H42.7364C43.04 75.514 43.3438 75.4706 43.6474 75.4273H43.6692C44.2332 75.3404 44.7972 75.232 45.3612 75.1235C45.5131 75.1018 45.6866 75.0584 45.8385 75.0151C45.9469 74.9933 46.0337 74.9717 46.1422 74.95C46.294 74.9282 46.4459 74.8849 46.5978 74.8632C46.7279 74.8198 46.8581 74.7981 46.9882 74.7547C49.1575 74.2341 51.2618 73.5182 53.2792 72.6722C49.83 77.3796 45.2094 81.1759 39.8078 83.6706C42.3025 83.4971 44.7972 83.0849 47.2052 82.3907C55.9475 79.8092 63.3014 73.9304 67.7051 66.0124C66.8157 71.0235 64.82 75.7959 61.8697 79.9611C63.9739 78.5726 65.9046 76.9674 67.6618 75.1452C72.521 70.069 75.7099 63.6261 76.7946 56.706C77.5321 60.1336 77.7491 63.6695 77.4237 67.1621C93.0865 45.3171 78.7253 22.6695 72.7162 16.7039C72.6946 16.6605 72.6729 16.6388 72.6729 16.5954C72.6511 16.6172 72.6511 16.6172 72.6511 16.6388C72.6511 16.6171 72.6511 16.6171 72.6295 16.5954C72.6295 16.8557 72.6077 17.1161 72.5861 17.3764C72.521 17.8753 72.4559 18.3525 72.3691 18.8298C72.2607 19.307 72.1305 19.7843 72.0004 20.2616C71.8485 20.7171 71.675 21.1943 71.4797 21.65C71.2845 22.0838 71.0676 22.5394 70.8289 22.9732C70.5904 23.3854 70.33 23.8193 70.048 24.2097C69.766 24.6219 69.4623 25.0124 69.1586 25.3812C68.8332 25.7716 68.4861 26.1187 68.139 26.4658C67.9221 26.6611 67.7268 26.8346 67.5099 27.0082C67.3364 27.1599 67.1845 27.2901 67.0109 27.442C66.6205 27.7457 66.23 28.0277 65.7961 28.2881C65.3839 28.5484 64.9501 28.8087 64.5162 29.0256C64.0607 29.2426 63.6052 29.4378 63.1496 29.633C62.694 29.8065 62.2168 29.9584 61.7395 30.0885C61.2622 30.2187 60.7634 30.3272 60.2861 30.4139C59.7871 30.5008 59.2882 30.5441 58.811 30.5875C58.4639 30.6092 58.1168 30.6308 57.7697 30.6308C57.2707 30.6308 56.7718 30.5875 56.2946 30.5441C55.7956 30.5007 55.2966 30.4356 54.8194 30.3271C54.3205 30.2403 53.8432 30.1102 53.366 29.9583H53.3442C53.8215 29.915 54.2987 29.8715 54.776 29.7848C55.275 29.698 55.7522 29.5896 56.2295 29.4594C56.7067 29.3292 57.184 29.1774 57.6395 29.0038C58.1168 28.8303 58.5723 28.6134 59.0062 28.3964C59.4617 28.1795 59.8739 27.9409 60.3077 27.6806C60.7199 27.3985 61.1321 27.1165 61.5226 26.8129C61.9131 26.5091 62.2818 26.1837 62.6289 25.8366C62.9977 25.5112 63.3231 25.1424 63.6485 24.7737C63.9738 24.3832 64.2776 23.9927 64.5596 23.6022C64.6029 23.5372 64.6464 23.4504 64.6898 23.3853C64.9067 23.0382 65.1236 22.6911 65.3188 22.3441C65.5575 21.9102 65.7744 21.4763 65.9697 21.0207C66.1649 20.5652 66.3384 20.1097 66.4903 19.6324C66.6421 19.1768 66.7506 18.6996 66.8591 18.2223C66.9459 17.7234 67.0326 17.2462 67.076 16.7689C67.1194 16.2699 67.1628 15.7711 67.1628 15.2938C67.1628 14.9467 67.1411 14.5996 67.1195 14.2525C67.0761 13.7535 67.011 13.2763 66.9459 12.7991C66.8591 12.3001 66.7507 11.8229 66.6205 11.3456C66.4686 10.8901 66.3169 10.4128 66.1433 9.95725C65.9697 9.50172 65.7528 9.04618 65.5358 8.61232C65.2973 8.17843 65.0586 7.74456 64.7983 7.3324C64.5163 6.92024 64.2342 6.52975 63.9306 6.13927C63.6052 5.77049 63.2798 5.40171 62.9327 5.03292C62.7591 4.85939 62.5639 4.66415 62.3687 4.4906C61.3924 3.73134 60.3729 3.01546 59.3533 2.36467C59.2015 2.27787 59.0713 2.21282 58.9195 2.14773C58.2035 1.69219 57.531 1.45343 56.8586 1.23651Z" fill="#E0234E"/>
</g>
<defs>
<clipPath id="clip0_6538_391">
<rect width="84" height="84" fill="white" transform="translate(0.5)"/>
</clipPath>
</defs>
</svg>
