<svg width="85" height="84" viewBox="0 0 85 84" fill="none" xmlns="http://www.w3.org/2000/svg">
<g clip-path="url(#clip0_6538_386)">
<path d="M39.3741 0.896163C41.4569 -0.296027 44.1698 -0.301412 46.2508 0.896163C56.7202 6.81193 67.1929 12.7184 77.6606 18.6378C79.6294 19.7468 80.9463 21.938 80.9263 24.2065V59.798C80.9409 62.1606 79.4939 64.4041 77.4167 65.4879C66.9817 71.3711 56.5521 77.2614 46.1189 83.1446C43.993 84.3599 41.2257 84.2667 39.1662 82.9513C36.0378 81.1378 32.904 79.3331 29.7753 77.5214C29.136 77.1402 28.4152 76.8369 27.9638 76.217C28.3629 75.6791 29.0764 75.6121 29.6563 75.3772C30.9621 74.962 32.1615 74.2955 33.3612 73.6487C33.6645 73.441 34.0348 73.5206 34.3256 73.7064C37.0008 75.2402 39.6523 76.8187 42.3365 78.3378C42.9091 78.6684 43.4889 78.2295 43.9783 77.9567C54.2183 72.1693 64.4708 66.4037 74.709 60.6145C75.0883 60.432 75.2981 60.0293 75.2673 59.6137C75.2744 47.8729 75.269 36.1299 75.2708 24.389C75.3142 23.9175 75.0414 23.484 74.6151 23.291C64.2162 17.4348 53.8228 11.5696 43.4258 5.71188C43.2456 5.58804 43.0322 5.5216 42.8137 5.52128C42.595 5.52096 42.3815 5.58677 42.201 5.71009C31.804 11.5696 21.4123 17.4402 11.0153 23.2961C10.5905 23.4894 10.3053 23.9157 10.3559 24.389C10.3578 36.1299 10.3559 47.8729 10.3559 59.6156C10.3379 59.8183 10.3825 60.0217 10.4835 60.1984C10.5846 60.3751 10.7374 60.5165 10.9214 60.6037C13.6958 62.1771 16.474 63.7393 19.2503 65.3072C20.8142 66.1491 22.7347 66.6493 24.4578 66.0043C25.9786 65.4589 27.0444 63.9071 27.0155 62.2925C27.0298 50.6202 27.0083 38.9459 27.0262 27.2754C26.9882 26.7572 27.4797 26.3291 27.9836 26.3779C29.3166 26.3689 30.6516 26.36 31.9847 26.3815C32.5412 26.3689 32.924 26.9269 32.8552 27.4489C32.8499 39.1952 32.8696 50.9417 32.8462 62.688C32.8499 65.8185 31.5637 69.2248 28.6681 70.7566C25.1008 72.6046 20.6916 72.2126 17.1674 70.4406C14.1165 68.9179 11.205 67.1208 8.20821 65.4894C6.12569 64.4115 4.68579 62.1591 4.70045 59.7984V24.2065C4.67861 21.8909 6.04791 19.66 8.07807 18.5672C18.5113 12.6792 28.9427 6.7868 39.3741 0.896163Z" fill="#8CC84B"/>
<path d="M48.476 25.5506C53.0263 25.2577 57.8976 25.3771 61.9924 27.6188C65.1627 29.3366 66.9203 32.9418 66.9763 36.464C66.8877 36.9391 66.3911 37.2011 65.9375 37.1685C64.6173 37.1667 63.2967 37.1864 61.9765 37.1596C61.4165 37.1811 61.091 36.6647 61.0207 36.1696C60.6413 34.4844 59.7223 32.8153 58.1361 32.0025C55.7012 30.7834 52.8779 30.8447 50.2228 30.8701C48.2845 30.973 46.2001 31.1409 44.558 32.2807C43.2974 33.1441 42.9144 34.887 43.3644 36.2907C43.7886 37.2987 44.9521 37.6238 45.904 37.9236C51.3877 39.3578 57.1988 39.2151 62.5779 41.1026C64.8049 41.872 66.9834 43.3679 67.7457 45.6996C68.7429 48.8247 68.3057 52.5601 66.0824 55.069C64.2793 57.1336 61.6531 58.2573 59.0339 58.8675C55.5495 59.6445 51.9335 59.6643 48.3949 59.3193C45.0675 58.9399 41.6049 58.0657 39.0363 55.7987C36.8398 53.8914 35.7669 50.9199 35.8734 48.0517C35.8989 47.5673 36.3811 47.2296 36.8451 47.2694C38.1747 47.2586 39.5042 47.255 40.8337 47.2711C41.3647 47.2332 41.7584 47.6921 41.7856 48.1926C42.031 49.7982 42.6343 51.4834 44.0345 52.4354C46.7366 54.1786 50.1271 54.0593 53.2211 54.1081C55.7844 53.9943 58.6618 53.96 60.7536 52.2658C61.8572 51.2994 62.1842 49.6828 61.8859 48.2919C61.5628 47.1177 60.3344 46.5705 59.2795 46.2127C53.8661 44.5002 47.9901 45.1216 42.629 43.1851C40.4525 42.4159 38.3479 40.9617 37.5117 38.7257C36.3449 35.561 36.8796 31.6467 39.3361 29.2226C41.7312 26.8113 45.1887 25.883 48.476 25.5506Z" fill="#8CC84B"/>
</g>
<defs>
<clipPath id="clip0_6538_386">
<rect width="84" height="84" fill="white" transform="translate(0.5)"/>
</clipPath>
</defs>
</svg>
