<svg width="84" height="84" viewBox="0 0 84 84" fill="none" xmlns="http://www.w3.org/2000/svg">
<g clip-path="url(#clip0_6538_350)">
<path d="M41.8391 49.4059C45.8887 49.4059 49.1714 46.0904 49.1714 42.0003C49.1714 37.9103 45.8887 34.5947 41.8391 34.5947C37.7896 34.5947 34.5068 37.9103 34.5068 42.0003C34.5068 46.0904 37.7896 49.4059 41.8391 49.4059Z" fill="#08ACDA"/>
<path d="M41.8392 57.1732C63.5684 57.1732 81.1833 50.3802 81.1833 42.0006C81.1833 33.6211 63.5684 26.8281 41.8392 26.8281C20.1101 26.8281 2.49512 33.6211 2.49512 42.0006C2.49512 50.3802 20.1101 57.1732 41.8392 57.1732Z" stroke="#08ACDA" stroke-width="5"/>
<path d="M28.8296 49.5867C39.6943 68.5929 54.3263 80.6039 61.5114 76.4141C68.6965 72.2244 65.7136 53.4204 54.849 34.4142C43.9844 15.4079 29.3524 3.3969 22.1673 7.58667C14.9822 11.7764 17.965 30.5805 28.8296 49.5867Z" stroke="#08ACDA" stroke-width="5"/>
<path d="M28.8296 34.4141C17.9651 53.4203 14.9822 72.2244 22.1673 76.4141C29.3523 80.6039 43.9845 68.5929 54.849 49.5867C65.7136 30.5804 68.6964 11.7765 61.5114 7.58667C54.3264 3.3969 39.6942 15.4079 28.8296 34.4141Z" stroke="#08ACDA" stroke-width="5"/>
</g>
<defs>
<clipPath id="clip0_6538_350">
<rect width="84" height="84" fill="white"/>
</clipPath>
</defs>
</svg>
