<svg width="84" height="84" viewBox="0 0 84 84" fill="none" xmlns="http://www.w3.org/2000/svg">
<path d="M25.7344 49.5256C21.5614 49.5256 18.16 46.0971 18.16 41.8941C18.16 37.6911 21.5614 34.2627 25.7344 34.2627C29.9073 34.2627 33.3088 37.6911 33.3088 41.8941C33.3088 46.0941 29.9043 49.5256 25.7344 49.5256ZM7.54741 64.6774C3.38044 64.6684 -0.0119768 61.2249 3.17831e-05 57.0219C0.0024116 55.0061 0.803846 53.0734 2.2287 51.6474C3.65355 50.2214 5.5856 49.4185 7.60145 49.4145C11.7714 49.4235 15.1638 52.8669 15.1488 57.0729C15.1449 59.088 14.3428 61.0195 12.9182 62.4446C11.4936 63.8698 9.56249 64.6726 7.54741 64.6774ZM76.4825 64.6774C74.4669 64.6814 72.5318 63.8865 71.1009 62.4669C69.6701 61.0473 68.86 59.1186 68.8481 57.103C68.8271 52.894 72.2045 49.4385 76.3684 49.4175C78.383 49.4143 80.3169 50.209 81.747 51.6279C83.1772 53.0468 83.9872 54.9743 83.9999 56.9889C84.0239 61.1949 80.6435 64.6533 76.4825 64.6774Z" fill="white"/>
<path d="M62.2859 34.707C60.2264 34.0645 58.0258 33.7974 55.8673 33.5632C52.5289 33.2029 51.199 31.9 50.6346 28.5556C50.3163 26.6883 49.872 24.7729 49.0644 23.0767C47.5243 19.8494 43.9158 18.4024 40.2922 19.228C37.23 19.9275 34.6872 22.9746 34.5461 26.1029C34.384 29.6694 36.4254 32.7166 39.9319 33.7673C41.5981 34.2687 43.3694 34.5179 45.1076 34.647C48.2989 34.8781 49.3646 35.8298 50.2263 37.2828C50.7727 38.2015 51.298 39.1051 51.298 41.8371C51.298 44.572 50.7666 45.4757 50.2263 46.3913C49.3646 47.8444 48.2989 48.793 45.1076 49.0302C43.3664 49.1563 41.5951 49.4085 39.9319 49.9098C36.4254 50.9636 34.384 54.0047 34.5461 57.5773C34.6872 60.7025 37.233 63.7497 40.2922 64.4492C43.9158 65.2778 47.5243 63.8278 49.0644 60.6005C49.875 58.9072 50.3163 56.9889 50.6346 55.1215C51.202 51.7772 52.5319 50.4772 55.8673 50.114C58.0288 49.8798 60.2264 49.6096 62.2859 48.9672C65.4111 47.9915 67.2904 45.0764 67.2904 41.8371C67.2904 38.6008 65.4111 35.6887 62.2859 34.707Z" fill="#F44250"/>
</svg>
