<svg width="85" height="84" viewBox="0 0 85 84" fill="none" xmlns="http://www.w3.org/2000/svg">
<g clip-path="url(#clip0_6538_306)">
<path d="M42.3391 49.4059C46.3887 49.4059 49.6714 46.0904 49.6714 42.0003C49.6714 37.9103 46.3887 34.5947 42.3391 34.5947C38.2896 34.5947 35.0068 37.9103 35.0068 42.0003C35.0068 46.0904 38.2896 49.4059 42.3391 49.4059Z" fill="#61DAFB"/>
<path d="M42.3392 57.1732C64.0684 57.1732 81.6833 50.3802 81.6833 42.0006C81.6833 33.6211 64.0684 26.8281 42.3392 26.8281C20.6101 26.8281 2.99512 33.6211 2.99512 42.0006C2.99512 50.3802 20.6101 57.1732 42.3392 57.1732Z" stroke="#61DAFB" stroke-width="5"/>
<path d="M29.3296 49.5867C40.1943 68.5929 54.8263 80.6039 62.0114 76.4141C69.1965 72.2244 66.2136 53.4204 55.349 34.4142C44.4844 15.4079 29.8524 3.3969 22.6673 7.58667C15.4822 11.7764 18.465 30.5805 29.3296 49.5867Z" stroke="#61DAFB" stroke-width="5"/>
<path d="M29.3296 34.4141C18.4651 53.4203 15.4822 72.2244 22.6673 76.4141C29.8523 80.6039 44.4845 68.5929 55.349 49.5867C66.2136 30.5804 69.1964 11.7765 62.0114 7.58667C54.8264 3.3969 40.1942 15.4079 29.3296 34.4141Z" stroke="#61DAFB" stroke-width="5"/>
</g>
<defs>
<clipPath id="clip0_6538_306">
<rect width="84" height="84" fill="white" transform="translate(0.5)"/>
</clipPath>
</defs>
</svg>
