<svg width="84" height="84" viewBox="0 0 84 84" fill="none" xmlns="http://www.w3.org/2000/svg">
<g clip-path="url(#clip0_6538_406)">
<path d="M42.6988 47.6049C42.6988 49.336 41.411 50.7655 39.7413 50.99C37.762 55.6041 33.7304 60.1058 28.2068 63.2949C23.5708 65.9714 18.658 67.2774 14.2514 67.2774C8.64701 67.2774 3.86078 65.1658 1.49933 61.0757C-2.33579 54.4331 1.40105 45.1647 10.258 38.9017C10.2583 40.3323 10.3702 41.6442 10.6209 42.8082C9.90617 43.4107 9.25665 43.9267 8.62282 44.5913C6.99186 46.3011 5.68797 48.0726 4.79588 49.9642C3.1319 53.4922 3.01944 56.8272 4.47902 59.3554C6.12331 62.2033 9.68522 63.8368 14.2514 63.8368C18.2079 63.8368 22.5531 62.5861 26.4864 60.3152C28.7768 58.9929 30.8133 57.4048 32.5397 55.595C34.1706 53.8851 35.4499 52.059 36.3421 50.1674C36.4198 50.0026 36.4932 49.8384 36.5638 49.6746C36.1258 49.1001 35.865 48.3831 35.865 47.6049C35.865 45.7178 37.3948 44.1881 39.2819 44.1881C41.169 44.1881 42.6988 45.7178 42.6988 47.6049ZM27.4502 16C35.0789 16 41.4015 24.0611 42.5423 34.5964C41.3524 33.8813 40.1066 33.2853 38.802 32.8144C38.6465 32.0002 38.4538 31.2005 38.224 30.4174C37.5587 28.15 36.6169 26.1291 35.4247 24.4106C33.2014 21.2057 30.3693 19.4406 27.4502 19.4406C24.5312 19.4406 21.699 21.2057 19.4757 24.4106C18.2835 26.1291 17.3418 28.15 16.6764 30.4174C15.9723 32.8173 15.6152 35.3751 15.6152 38.0198C15.6152 40.6644 15.9723 43.2222 16.6764 45.6221C17.3418 47.8894 18.2835 49.9104 19.4757 51.629C19.5992 51.8069 19.7247 51.9802 19.8519 52.1493C20.0556 52.1114 20.2652 52.0908 20.4797 52.0908C22.3669 52.0908 23.8966 53.6206 23.8966 55.5075C23.8966 57.3946 22.3669 58.9244 20.4797 58.9244C18.5928 58.9244 17.063 57.3946 17.063 55.5075C17.063 55.1212 17.128 54.7502 17.2463 54.4038C14.1334 50.3727 12.1746 44.5265 12.1746 38.0198C12.1746 25.8586 19.0137 16 27.4502 16ZM40.6164 63.8361C44.8063 63.8361 48.1507 62.4607 49.9437 60.0336C50.9862 60.5845 52.1449 60.9197 53.3681 61.0896C50.9931 65.1343 46.1886 67.2768 40.6164 67.2768C37.1706 67.2768 33.4164 66.4785 29.7264 64.8509C31.1623 64.0579 32.4345 63.2916 33.3768 62.5791C35.8157 63.4013 38.2835 63.8361 40.6164 63.8361ZM46.2694 44.5359C44.5431 42.7261 42.5065 41.138 40.2163 39.8157C36.2829 37.5447 31.938 36.294 27.9822 36.294H27.9817C27.1173 36.2941 26.2887 36.3527 25.5024 36.4669C25.4824 36.4698 25.4631 36.4736 25.4432 36.4766C25.086 37.9819 23.7339 39.102 22.1194 39.102C20.2323 39.102 18.7027 37.5722 18.7027 35.6853C18.7027 33.7982 20.2323 32.2684 22.1194 32.2684C23.0055 32.2684 23.8126 32.6057 24.4198 33.1589C24.4244 33.158 24.4289 33.1569 24.4337 33.1561C25.5656 32.9549 26.7538 32.8535 27.9811 32.8534C32.3882 32.8532 37.2999 34.159 41.9365 36.836C49.5648 41.2403 54.353 48.1476 54.8105 54.3979C53.425 54.2419 52.2527 53.7822 51.175 53.1877C50.9583 52.1441 50.5904 51.0632 50.0718 49.9635C49.1796 48.0718 47.9004 46.2457 46.2694 44.5359Z" fill="#999999"/>
<path d="M81.1274 39.3453C82.6411 41.6247 79.5589 43.4077 78.1786 41.1157C77.3372 39.6795 76.0465 38.3361 74.3547 37.1624C72.6362 35.9703 70.6151 35.0285 68.3479 34.3633C65.9479 33.659 63.3902 33.302 60.7456 33.302C58.1009 33.302 55.5432 33.659 53.1432 34.3633C52.7302 34.4845 52.3264 34.6158 51.9301 34.7553C51.881 36.5995 50.3717 38.0797 48.5156 38.0797C46.6286 38.0797 45.0987 36.55 45.0987 34.6629C45.0987 32.7759 46.6286 31.2461 48.5156 31.2461C49.1435 31.2461 49.7313 31.4163 50.2369 31.7117C53.3603 30.5327 56.9395 29.8613 60.7456 29.8613C69.9517 29.8613 77.8383 33.7807 81.1274 39.3453ZM84.0001 47.604C84.0001 49.3174 82.739 50.7358 81.0947 50.9826C77.7865 56.5185 69.9218 60.4126 60.7456 60.4126C53.5797 60.4126 47.2134 58.0381 43.1924 54.3614C41.2473 52.4062 43.5886 50.1344 45.4026 51.7215C45.9223 52.2061 46.501 52.6708 47.1364 53.1115C48.8549 54.3037 50.8758 55.2455 53.1432 55.9108C55.5431 56.6149 58.1009 56.972 60.7456 56.972C63.3901 56.972 65.948 56.6149 68.3479 55.9108C70.6152 55.2455 72.6363 54.3037 74.3546 53.1115C75.8456 52.0772 77.0238 50.9109 77.8588 49.6656C77.4245 49.0925 77.1664 48.3786 77.1664 47.604C77.1664 45.717 78.6962 44.1873 80.5834 44.1873C82.4703 44.1873 84.0001 45.717 84.0001 47.604Z" fill="#89D96D"/>
</g>
<defs>
<clipPath id="clip0_6538_406">
<rect width="84" height="52" fill="white" transform="translate(0 16)"/>
</clipPath>
</defs>
</svg>
