<svg width="85" height="84" viewBox="0 0 85 84" fill="none" xmlns="http://www.w3.org/2000/svg">
<path d="M59.2031 57.6936C62.3029 57.3727 64.6546 54.7004 64.5476 51.4933C64.441 48.2866 61.7684 45.721 58.5616 45.721H58.348C55.034 45.8279 52.4687 48.6071 52.5757 51.9209C52.6826 53.5244 53.3238 54.914 54.2859 55.8761C50.6515 63.0384 45.0931 68.2762 36.7554 72.659C31.09 75.6522 25.211 76.7212 19.332 75.9731C14.5217 75.3316 10.7804 73.1938 8.42842 69.6659C5.00804 64.428 4.68746 58.7623 7.57365 53.0969C9.60475 49.0347 12.8112 46.0415 14.8423 44.545C14.4147 43.1554 13.7732 40.8037 13.4527 39.0935C-2.04697 50.3177 -0.443426 65.497 4.25992 72.659C7.78726 78.0042 14.9492 81.3179 22.8594 81.3179C24.9971 81.3179 27.1348 81.1039 29.2729 80.5698C42.9554 77.8972 53.3241 69.7728 59.2031 57.6936V57.6936ZM78.0165 44.4383C69.8925 34.9243 57.9205 29.6865 44.238 29.6865H42.5278C41.5658 27.7624 39.5347 26.4794 37.29 26.4794H37.076C33.7626 26.5864 31.1973 29.3656 31.304 32.6796C31.4109 35.8864 34.0832 38.452 37.29 38.452H37.5036C39.8552 38.345 41.8863 36.8485 42.7414 34.8174H44.6656C52.7896 34.8174 60.4858 37.169 67.4341 41.7657C72.7786 45.2934 76.6269 49.8901 78.7646 55.4485C80.5818 59.9383 80.4748 64.321 78.5507 68.0626C75.5579 73.728 70.5339 76.8282 63.9065 76.8282C59.6307 76.8282 55.5688 75.5452 53.4308 74.5831C52.2551 75.6522 50.117 77.3623 48.6204 78.4317C53.2171 80.5694 57.9205 81.7454 62.4099 81.7454C72.6717 81.7454 80.2612 76.0797 83.1474 70.4143C86.2472 64.2141 86.0333 53.5244 78.0165 44.4383V44.4383ZM23.7144 59.5104C23.8214 62.7175 26.4937 65.2828 29.7004 65.2828H29.9144C33.2281 65.1761 35.7934 62.3966 35.6864 59.0828C35.5798 55.8758 32.9072 53.3105 29.7004 53.3105H29.4868C29.2729 53.3105 28.952 53.3105 28.7387 53.4171C24.3559 46.1482 22.5388 38.2381 23.1803 29.6862C23.6075 23.2723 25.7455 17.7136 29.4868 13.1169C32.5866 9.16165 38.5726 7.23752 42.6348 7.13088C53.9653 6.91695 58.7753 21.0273 59.0962 26.693C60.4858 27.0136 62.8374 27.762 64.441 28.2966C63.158 10.9795 52.4687 2 42.2072 2C32.5866 2 23.7144 8.94837 20.1868 19.2105C15.2698 32.8933 18.4766 46.0415 24.4626 56.4106C23.9284 57.1587 23.6075 58.3347 23.7144 59.5107V59.5104Z" fill="#764ABC"/>
</svg>
