<svg width="85" height="84" viewBox="0 0 85 84" fill="none" xmlns="http://www.w3.org/2000/svg">
<g clip-path="url(#clip0_6538_357)">
<path d="M11.5071 77.406L8.90308 8.06415C8.86379 6.96282 9.2563 5.88972 9.99701 5.07371C10.7377 4.25771 11.7679 3.76337 12.8679 3.69616L71.8357 0.00856793C72.4119 -0.0281969 72.9895 0.0536182 73.5327 0.248954C74.076 0.44429 74.5734 0.748995 74.9942 1.14423C75.415 1.53946 75.7503 2.01681 75.9793 2.54678C76.2082 3.07674 76.3261 3.64804 76.3255 4.22536V79.779C76.3249 80.3494 76.2089 80.9138 75.9843 81.4381C75.7598 81.9626 75.4313 82.436 75.0189 82.83C74.6065 83.2241 74.1184 83.5304 73.5843 83.7308C73.0503 83.9312 72.4812 84.0213 71.9113 83.9958L15.5391 81.4632C14.48 81.4155 13.4776 80.9714 12.7308 80.219C11.9839 79.4667 11.5471 78.4653 11.5071 77.406Z" fill="#FF4785"/>
<path fill-rule="evenodd" clip-rule="evenodd" d="M67.1986 0.297852L59.0843 0.801851L58.6895 10.3232C58.6846 10.4424 58.7137 10.5604 58.7733 10.6637C58.8329 10.767 58.9205 10.8512 59.0261 10.9066C59.1317 10.962 59.2508 10.9864 59.3697 10.9768C59.4885 10.9671 59.6022 10.9241 59.6975 10.8524L63.3934 8.04684L66.5182 10.508C66.6126 10.5827 66.7264 10.6288 66.8461 10.6409C66.9658 10.6529 67.0864 10.6305 67.1937 10.5761C67.3011 10.5218 67.3906 10.4379 67.4518 10.3342C67.513 10.2306 67.5432 10.1117 67.5388 9.9914L67.1986 0.297852ZM60.8819 32.1758C59.3993 33.3308 48.3281 34.1162 48.3281 32.474C48.5633 26.2034 45.7577 25.9304 44.1953 25.9304C42.7169 25.9304 40.2221 26.3756 40.2221 29.7356C40.2221 33.1586 43.8677 35.0906 48.1475 37.3586C54.2249 40.5799 61.5874 44.4817 61.5874 54.2929C61.5874 63.7009 53.9435 68.8921 44.1995 68.8921C34.1405 68.8921 25.35 64.8223 26.3411 50.7145C26.7317 49.0597 39.5207 49.4545 39.5207 50.7145C39.3611 56.5357 40.6883 58.2493 44.0399 58.2493C46.6145 58.2493 47.7821 56.8297 47.7821 54.4441C47.7821 50.8279 43.9853 48.6943 39.6131 46.2415C33.6953 42.9193 26.7317 39.0091 26.7317 30.0338C26.7317 21.0794 32.8889 15.107 43.8845 15.107C54.8801 15.107 60.8819 20.987 60.8819 32.1758Z" fill="white"/>
</g>
<defs>
<clipPath id="clip0_6538_357">
<rect width="84" height="84" fill="white" transform="translate(0.5)"/>
</clipPath>
</defs>
</svg>
