<svg width="84" height="84" viewBox="0 0 84 84" fill="none" xmlns="http://www.w3.org/2000/svg">
<g clip-path="url(#clip0_6538_346)">
<path d="M42 17C30.7997 17 23.7998 22.5986 20.9995 33.7947C25.2 28.1961 30.1001 26.0975 35.6997 27.4966C38.8951 28.2949 41.1786 30.613 43.7069 33.1781C47.8244 37.3566 52.5901 42.1926 63.0005 42.1926C74.1998 42.1926 81.2007 36.594 83.9998 25.3968C79.8005 30.9954 74.9004 33.0952 69.2997 31.6961C66.1055 30.8977 63.8219 28.5795 61.2937 26.0145C57.1761 21.836 52.4094 17 42 17ZM20.9995 42.1926C9.80016 42.1926 2.7993 47.7912 0 58.9883C4.19948 53.3898 9.0996 51.2901 14.7003 52.6902C17.8945 53.4896 20.1781 55.8067 22.7063 58.3708C26.8239 62.5492 31.5906 67.3862 42 67.3862C53.2004 67.3862 60.2002 61.7876 63.0005 50.5905C58.8 56.1891 53.8999 58.2888 48.3003 56.8887C45.1049 56.0914 42.8214 53.7721 40.2931 51.2081C36.1756 47.0297 31.4099 42.1926 20.9995 42.1926Z" fill="#06B6D4"/>
</g>
<defs>
<clipPath id="clip0_6538_346">
<rect width="84" height="84" fill="white"/>
</clipPath>
</defs>
</svg>
