<svg width="85" height="84" viewBox="0 0 85 84" fill="none" xmlns="http://www.w3.org/2000/svg">
<path d="M0.5 0H84.5V83.9996H0.5V0Z" fill="#017ACB"/>
<path d="M40.8334 31.1056H44.8628V38.0619H33.969V69.0106L33.6802 69.0894C33.2865 69.1944 28.1021 69.1944 26.9865 69.0763L26.094 68.9975V38.0619H15.2002V31.1056L18.6521 31.0663C20.5421 31.04 25.3983 31.04 29.4409 31.0663C33.4834 31.0925 38.6021 31.1056 40.8334 31.1056ZM71.5853 65.7294C69.9841 67.4225 68.2647 68.3675 65.4034 69.1419C64.1565 69.4831 63.9465 69.4963 61.1378 69.4831C58.329 69.47 58.1059 69.47 56.7409 69.1156C53.2103 68.21 50.3621 66.4381 48.4196 63.9313C47.8684 63.2225 46.9628 61.7525 46.9628 61.5688C46.9628 61.5163 47.094 61.3981 47.2646 61.3194C47.4353 61.2406 47.7896 61.0175 48.0784 60.8469C48.3671 60.6763 48.8921 60.3612 49.2465 60.1775C49.6009 59.9937 50.6246 59.39 51.5172 58.8519C52.4097 58.3138 53.2234 57.8806 53.3153 57.8806C53.4072 57.8806 53.5778 58.0644 53.709 58.2875C54.4965 59.6131 56.334 61.3063 57.6334 61.8838C58.434 62.225 60.2059 62.6056 61.059 62.6056C61.8465 62.6056 63.2903 62.2644 64.0647 61.91C64.8915 61.5294 65.3116 61.1487 65.8103 60.3875C66.1516 59.8494 66.1909 59.705 66.1778 58.6813C66.1778 57.7363 66.1253 57.4737 65.8628 57.0406C65.1278 55.8331 64.1303 55.2031 60.0878 53.4181C55.914 51.5675 54.0372 50.465 52.5146 48.9819C51.3859 47.8794 51.1628 47.5775 50.454 46.1994C49.5353 44.4275 49.4171 43.85 49.404 41.2119C49.3909 39.3612 49.4303 38.7575 49.6271 38.1275C49.9028 37.1825 50.7953 35.3581 51.2021 34.8988C52.0421 33.9144 52.344 33.6125 52.9347 33.1269C54.7197 31.6569 57.5022 30.6856 60.1665 30.5938C60.4684 30.5938 61.4659 30.6462 62.3978 30.7119C65.0753 30.935 66.8997 31.5912 68.6584 32.9956C69.9841 34.0456 71.9922 36.5131 71.7953 36.8413C71.6641 37.0381 66.4272 40.5294 66.0859 40.6344C65.8759 40.7 65.7316 40.6213 65.4428 40.28C63.6578 38.1406 62.9359 37.6813 61.2034 37.5763C59.9697 37.4975 59.3134 37.6419 58.4865 38.1931C57.6203 38.7706 57.2003 39.65 57.2003 40.8706C57.2134 42.6556 57.8959 43.4956 60.4159 44.7425C62.0434 45.5431 63.4347 46.1994 63.5397 46.1994C63.6972 46.1994 67.0703 47.8794 67.9497 48.4044C72.0447 50.8062 73.7116 53.2738 74.1447 57.5263C74.4597 60.7288 73.5541 63.6556 71.5853 65.7294Z" fill="white"/>
</svg>
